<svg width="1280" height="832" viewBox="0 0 1280 832" fill="none" xmlns="http://www.w3.org/2000/svg">
<g clip-path="url(#clip0_54_1626)">
<rect width="1280" height="832" fill="#4FABBF"/>
<path fill-rule="evenodd" clip-rule="evenodd" d="M1335.33 634.337L1359.66 610L1384 634.337L1359.66 658.675L1335.33 683.012L1310.99 707.35L1291.37 687.735L1286.65 683.012L1262.4 658.765L1238.15 683.016L1213.81 707.354L1197.62 691.162L1189.48 683.016L1165.05 658.595L1164.97 658.678L1140.63 683.016L1116.3 707.354L1100.98 692.04L1091.96 683.016L1067.71 658.769L1043.46 683.019L1019.12 707.357L1003.42 691.659L994.785 683.019L970.449 658.684L946.118 683.016L921.78 707.354L910.138 695.712L897.443 683.016L873.195 658.769L848.943 683.019L824.606 707.357L810.403 693.154L800.269 683.019L775.847 658.598L775.763 658.682L751.425 683.019L727.088 707.357L702.75 683.019L702.75 683.02L678.502 658.772L654.252 683.023L629.914 707.36L605.577 683.023L581.328 658.774L557.086 683.016L544.188 695.915L532.748 707.354L508.411 683.016L484.164 658.769L459.912 683.019L450.659 692.273L435.575 707.357L411.237 683.02L390.777 662.559L390.693 662.644L386.731 658.682L362.394 683.019L352.807 692.607L338.056 707.357L313.719 683.019L313.719 683.02L289.471 658.772L265.22 683.023L260.368 687.875L240.883 707.36L224.296 690.774L216.545 683.023L192.21 658.688L160.061 690.837L160.06 690.837L143.541 707.357L119.203 683.019L94.9555 658.772L70.7047 683.023L60.5484 693.179L46.3672 707.36L33.2201 694.214L22.0298 683.023L4.28447 665.278L4.05992 665.502L-2.61679 658.826L-26.8139 683.023L-35.1276 691.336L-51.1513 707.36L-66.8954 691.617L-75.4888 683.023L-99.7364 658.776L-123.988 683.027L-123.987 683.027L-148.325 707.364L-164.312 691.378L-164.312 691.378L-197 658.689L-172.663 634.352L-148.325 658.689L-123.987 634.351L-123.988 634.351L-99.6501 610.014L-75.3127 634.351L-75.3993 634.438L-51.1513 658.686L-26.9542 634.488L-27 634.442L-2.66255 610.105L10.6146 623.382L10.8391 623.158L46.3672 658.686L70.7043 634.348L80.8604 624.192L95.0418 610.011L119.379 634.348L119.293 634.435L143.541 658.682L143.541 658.682L167.878 634.345L167.878 634.344L192.215 610.007L216.553 634.344L216.547 634.35L240.883 658.686L265.22 634.348L270.072 629.496L289.558 610.011L313.895 634.348L313.809 634.435L338.056 658.682L338.056 658.682L362.394 634.345L371.98 624.759L386.731 610.007L411.153 634.429L411.237 634.345L435.575 658.682L459.912 634.344L469.165 625.092L484.25 610.007L508.587 634.344L508.501 634.431L532.748 658.678L557.086 634.341L569.984 621.443L581.423 610.004L605.761 634.341L605.666 634.437L629.914 658.685L654.251 634.348L678.589 610.011L702.926 634.348L702.84 634.435L727.087 658.682L727.088 658.682L751.425 634.345L775.763 610.007L790.051 624.295L790.135 624.211L824.606 658.682L824.606 658.682L848.944 634.345L873.281 610.007L897.618 634.344L897.532 634.431L921.78 658.679L946.117 634.341L946.118 634.341L970.455 610.004L994.793 634.341L994.787 634.347L1019.12 658.682L1043.46 634.344L1067.8 610.007L1092.13 634.344L1092.05 634.431L1116.3 658.679L1140.63 634.341L1164.97 610.004L1181.25 626.279L1181.33 626.195L1213.81 658.679L1238.15 634.341L1262.49 610.004L1286.83 634.341L1286.74 634.428L1310.99 658.675L1335.33 634.337Z" fill="#8CE8E9"/>
<path fill-rule="evenodd" clip-rule="evenodd" d="M1335.33 149.337L1359.66 125L1384 149.337L1359.66 173.675L1335.33 198.012L1310.99 222.35L1291.37 202.735L1286.65 198.012L1262.4 173.765L1238.15 198.016L1213.81 222.354L1197.62 206.162L1189.48 198.016L1165.05 173.595L1164.97 173.678L1140.63 198.016L1116.3 222.354L1100.98 207.04L1091.96 198.016L1067.71 173.769L1043.46 198.019L1019.12 222.357L1003.42 206.659L994.785 198.019L970.449 173.684L946.118 198.016L921.78 222.354L910.138 210.712L897.443 198.016L873.195 173.769L848.943 198.019L824.606 222.357L810.403 208.154L800.269 198.019L775.847 173.598L775.763 173.682L751.425 198.019L727.088 222.357L702.75 198.019L702.75 198.02L678.502 173.772L654.252 198.023L629.914 222.36L605.577 198.023L581.328 173.774L557.086 198.016L544.188 210.915L532.748 222.354L508.411 198.016L484.164 173.769L459.912 198.019L450.659 207.273L435.575 222.357L411.237 198.02L390.777 177.559L390.693 177.644L386.731 173.682L362.394 198.019L352.807 207.607L338.056 222.357L313.719 198.019L313.719 198.02L289.471 173.772L265.22 198.023L260.368 202.875L240.883 222.36L224.296 205.774L216.545 198.023L192.21 173.688L160.061 205.837L160.06 205.837L143.541 222.357L119.203 198.019L94.9555 173.772L70.7047 198.023L60.5484 208.179L46.3672 222.36L33.2201 209.214L22.0298 198.023L4.28447 180.278L4.05992 180.502L-2.61679 173.826L-26.8139 198.023L-35.1276 206.336L-51.1513 222.36L-66.8954 206.617L-75.4888 198.023L-99.7364 173.776L-123.988 198.027L-123.987 198.027L-148.325 222.364L-164.312 206.378L-164.312 206.378L-197 173.689L-172.663 149.352L-148.325 173.689L-123.987 149.351L-123.988 149.351L-99.6501 125.014L-75.3127 149.351L-75.3993 149.438L-51.1513 173.686L-26.9542 149.488L-27 149.442L-2.66255 125.105L10.6146 138.382L10.8391 138.158L46.3672 173.686L70.7043 149.348L80.8604 139.192L95.0418 125.011L119.379 149.348L119.293 149.435L143.541 173.682L143.541 173.682L167.878 149.345L167.878 149.344L192.215 125.007L216.553 149.344L216.547 149.35L240.883 173.686L265.22 149.348L270.072 144.496L289.558 125.011L313.895 149.348L313.809 149.435L338.056 173.682L338.056 173.682L362.394 149.345L371.98 139.759L386.731 125.007L411.153 149.429L411.237 149.345L435.575 173.682L459.912 149.344L469.165 140.092L484.25 125.007L508.587 149.344L508.501 149.431L532.748 173.678L557.086 149.341L569.984 136.443L581.423 125.004L605.761 149.341L605.666 149.437L629.914 173.685L654.251 149.348L678.589 125.011L702.926 149.348L702.84 149.435L727.087 173.682L727.088 173.682L751.425 149.345L775.763 125.007L790.051 139.295L790.135 139.211L824.606 173.682L824.606 173.682L848.944 149.345L873.281 125.007L897.618 149.344L897.532 149.431L921.78 173.679L946.117 149.341L946.118 149.341L970.455 125.004L994.793 149.341L994.787 149.347L1019.12 173.682L1043.46 149.344L1067.8 125.007L1092.13 149.344L1092.05 149.431L1116.3 173.679L1140.63 149.341L1164.97 125.004L1181.25 141.279L1181.33 141.195L1213.81 173.679L1238.15 149.341L1262.49 125.004L1286.83 149.341L1286.74 149.428L1310.99 173.675L1335.33 149.337Z" fill="#8CE8E9"/>
<path fill-rule="evenodd" clip-rule="evenodd" d="M1335.33 -44.6626L1359.66 -69L1384 -44.6626L1359.66 -20.3251L1335.33 4.01225L1310.99 28.3497L1291.37 8.73462L1286.65 4.01225L1262.4 -20.2353L1238.15 4.01616L1213.81 28.3536L1197.62 12.1624L1189.48 4.01615L1165.05 -20.4055L1164.97 -20.3217L1140.63 4.01616L1116.3 28.3536L1100.98 13.0403L1091.96 4.01615L1067.71 -20.2314L1043.46 4.01909L1019.12 28.3565L1003.42 12.6592L994.785 4.01908L970.449 -20.3159L946.118 4.01616L921.78 28.3536L910.138 16.7122L897.443 4.01615L873.195 -20.2313L848.943 4.01909L824.606 28.3565L810.403 14.1543L800.269 4.01908L775.847 -20.4023L775.763 -20.3178L751.425 4.01909L727.088 28.3565L702.75 4.01908L702.75 4.01962L678.502 -20.2282L654.252 4.02299L629.914 28.3604L605.577 4.02254L581.328 -20.226L557.086 4.01616L544.188 16.9146L532.748 28.3536L508.411 4.01571L484.164 -20.2315L459.912 4.01909L450.659 13.2731L435.575 28.3565L411.237 4.01962L390.777 -16.4405L390.693 -16.3562L386.731 -20.3178L362.394 4.01909L352.807 13.6066L338.056 28.3565L313.719 4.01908L313.719 4.01962L289.471 -20.2281L265.22 4.02299L260.368 8.87525L240.883 28.3604L224.296 11.774L216.545 4.02299L192.21 -20.3121L160.061 11.8372L160.06 11.8367L143.541 28.3565L119.203 4.01908L94.9555 -20.2281L70.7047 4.02299L60.5484 14.179L46.3672 28.3604L33.2201 15.2135L22.0298 4.02299L4.28447 -13.7222L4.05992 -13.4977L-2.61679 -20.1744L-26.8139 4.02299L-35.1276 12.3364L-51.1513 28.3604L-66.8954 12.6166L-75.4888 4.02299L-99.7364 -20.2245L-123.988 4.02676L-123.987 4.0269L-148.325 28.3643L-164.312 12.3777L-164.312 12.3778L-197 -20.3105L-172.663 -44.648L-148.325 -20.3106L-123.987 -44.6485L-123.988 -44.6489L-99.6501 -68.9863L-75.3127 -44.6489L-75.3993 -44.5623L-51.1513 -20.3145L-26.9542 -44.5118L-27 -44.5576L-2.66255 -68.8951L10.6146 -55.6179L10.8391 -55.8424L46.3672 -20.3145L70.7043 -44.6518L80.8604 -54.8079L95.0418 -68.9893L119.379 -44.6518L119.293 -44.5655L143.541 -20.3184L143.541 -20.3178L167.878 -44.6553L167.878 -44.6557L192.215 -68.9932L216.553 -44.6557L216.547 -44.65L240.883 -20.3145L265.22 -44.6518L270.072 -49.5041L289.558 -68.9893L313.895 -44.6518L313.809 -44.5654L338.056 -20.3178L338.056 -20.3184L362.394 -44.6553L371.98 -54.2413L386.731 -68.9927L411.153 -44.5709L411.237 -44.6553L435.575 -20.3178L459.912 -44.6557L469.165 -53.9078L484.25 -68.9932L508.587 -44.6557L508.501 -44.5694L532.748 -20.3217L557.086 -44.6587L569.984 -57.5571L581.423 -68.9961L605.761 -44.6586L605.666 -44.5635L629.914 -20.3149L654.251 -44.6518L678.589 -68.9893L702.926 -44.6518L702.84 -44.5654L727.087 -20.3178L727.088 -20.3184L751.425 -44.6553L775.763 -68.9932L790.051 -54.705L790.135 -54.7891L824.606 -20.3184L824.606 -20.3178L848.944 -44.6553L873.281 -68.9932L897.618 -44.6557L897.532 -44.5692L921.78 -20.3213L946.117 -44.6592L946.118 -44.6587L970.455 -68.9961L994.793 -44.6586L994.787 -44.6529L1019.12 -20.3184L1043.46 -44.6557L1067.8 -68.9932L1092.13 -44.6557L1092.05 -44.5691L1116.3 -20.3213L1140.63 -44.6592L1164.97 -68.9961L1181.25 -52.7207L1181.33 -52.8049L1213.81 -20.3213L1238.15 -44.6587L1262.49 -68.9961L1286.83 -44.6586L1286.74 -44.5725L1310.99 -20.3252L1335.33 -44.6626Z" fill="#8CE8E9"/>
<path fill-rule="evenodd" clip-rule="evenodd" d="M1335.33 731.337L1359.66 707L1384 731.337L1359.66 755.675L1335.33 780.012L1310.99 804.35L1291.37 784.735L1286.65 780.012L1262.4 755.765L1238.15 780.016L1213.81 804.354L1197.62 788.162L1189.48 780.016L1165.05 755.595L1164.97 755.678L1140.63 780.016L1116.3 804.354L1100.98 789.04L1091.96 780.016L1067.71 755.769L1043.46 780.019L1019.12 804.357L1003.42 788.659L994.785 780.019L970.449 755.684L946.118 780.016L921.78 804.354L910.138 792.712L897.443 780.016L873.195 755.769L848.943 780.019L824.606 804.357L810.403 790.154L800.269 780.019L775.847 755.598L775.763 755.682L751.425 780.019L727.088 804.357L702.75 780.019L702.75 780.02L678.502 755.772L654.252 780.023L629.914 804.36L605.577 780.023L581.328 755.774L557.086 780.016L544.188 792.915L532.748 804.354L508.411 780.016L484.164 755.769L459.912 780.019L450.659 789.273L435.575 804.357L411.237 780.02L390.777 759.559L390.693 759.644L386.731 755.682L362.394 780.019L352.807 789.607L338.056 804.357L313.719 780.019L313.719 780.02L289.471 755.772L265.22 780.023L260.368 784.875L240.883 804.36L224.296 787.774L216.545 780.023L192.21 755.688L160.061 787.837L160.06 787.837L143.541 804.357L119.203 780.019L94.9555 755.772L70.7047 780.023L60.5484 790.179L46.3672 804.36L33.2201 791.214L22.0298 780.023L4.28447 762.278L4.05992 762.502L-2.61679 755.826L-26.8139 780.023L-35.1276 788.336L-51.1513 804.36L-66.8954 788.617L-75.4888 780.023L-99.7364 755.776L-123.988 780.027L-123.987 780.027L-148.325 804.364L-164.312 788.378L-164.312 788.378L-197 755.689L-172.663 731.352L-148.325 755.689L-123.987 731.351L-123.988 731.351L-99.6501 707.014L-75.3127 731.351L-75.3993 731.438L-51.1513 755.686L-26.9542 731.488L-27 731.442L-2.66255 707.105L10.6146 720.382L10.8391 720.158L46.3672 755.686L70.7043 731.348L80.8604 721.192L95.0418 707.011L119.379 731.348L119.293 731.435L143.541 755.682L143.541 755.682L167.878 731.345L167.878 731.344L192.215 707.007L216.553 731.344L216.547 731.35L240.883 755.686L265.22 731.348L270.072 726.496L289.558 707.011L313.895 731.348L313.809 731.435L338.056 755.682L338.056 755.682L362.394 731.345L371.98 721.759L386.731 707.007L411.153 731.429L411.237 731.345L435.575 755.682L459.912 731.344L469.165 722.092L484.25 707.007L508.587 731.344L508.501 731.431L532.748 755.678L557.086 731.341L569.984 718.443L581.423 707.004L605.761 731.341L605.666 731.437L629.914 755.685L654.251 731.348L678.589 707.011L702.926 731.348L702.84 731.435L727.087 755.682L727.088 755.682L751.425 731.345L775.763 707.007L790.051 721.295L790.135 721.211L824.606 755.682L824.606 755.682L848.944 731.345L873.281 707.007L897.618 731.344L897.532 731.431L921.78 755.679L946.117 731.341L946.118 731.341L970.455 707.004L994.793 731.341L994.787 731.347L1019.12 755.682L1043.46 731.344L1067.8 707.007L1092.13 731.344L1092.05 731.431L1116.3 755.679L1140.63 731.341L1164.97 707.004L1181.25 723.279L1181.33 723.195L1213.81 755.679L1238.15 731.341L1262.49 707.004L1286.83 731.341L1286.74 731.428L1310.99 755.675L1335.33 731.337Z" fill="#8CE8E9"/>
<path fill-rule="evenodd" clip-rule="evenodd" d="M1335.33 246.337L1359.66 222L1384 246.337L1359.66 270.675L1335.33 295.012L1310.99 319.35L1291.37 299.735L1286.65 295.012L1262.4 270.765L1238.15 295.016L1213.81 319.354L1197.62 303.162L1189.48 295.016L1165.05 270.595L1164.97 270.678L1140.63 295.016L1116.3 319.354L1100.98 304.04L1091.96 295.016L1067.71 270.769L1043.46 295.019L1019.12 319.357L1003.42 303.659L994.785 295.019L970.449 270.684L946.118 295.016L921.78 319.354L910.138 307.712L897.443 295.016L873.195 270.769L848.943 295.019L824.606 319.357L810.403 305.154L800.269 295.019L775.847 270.598L775.763 270.682L751.425 295.019L727.088 319.357L702.75 295.019L702.75 295.02L678.502 270.772L654.252 295.023L629.914 319.36L605.577 295.023L581.328 270.774L557.086 295.016L544.188 307.915L532.748 319.354L508.411 295.016L484.164 270.769L459.912 295.019L450.659 304.273L435.575 319.357L411.237 295.02L390.777 274.559L390.693 274.644L386.731 270.682L362.394 295.019L352.807 304.607L338.056 319.357L313.719 295.019L313.719 295.02L289.471 270.772L265.22 295.023L260.368 299.875L240.883 319.36L224.296 302.774L216.545 295.023L192.21 270.688L160.061 302.837L160.06 302.837L143.541 319.357L119.203 295.019L94.9555 270.772L70.7047 295.023L60.5484 305.179L46.3672 319.36L33.2201 306.214L22.0298 295.023L4.28447 277.278L4.05992 277.502L-2.61679 270.826L-26.8139 295.023L-35.1276 303.336L-51.1513 319.36L-66.8954 303.617L-75.4888 295.023L-99.7364 270.776L-123.988 295.027L-123.987 295.027L-148.325 319.364L-164.312 303.378L-164.312 303.378L-197 270.689L-172.663 246.352L-148.325 270.689L-123.987 246.351L-123.988 246.351L-99.6501 222.014L-75.3127 246.351L-75.3993 246.438L-51.1513 270.686L-26.9542 246.488L-27 246.442L-2.66255 222.105L10.6146 235.382L10.8391 235.158L46.3672 270.686L70.7043 246.348L80.8604 236.192L95.0418 222.011L119.379 246.348L119.293 246.435L143.541 270.682L143.541 270.682L167.878 246.345L167.878 246.344L192.215 222.007L216.553 246.344L216.547 246.35L240.883 270.686L265.22 246.348L270.072 241.496L289.558 222.011L313.895 246.348L313.809 246.435L338.056 270.682L338.056 270.682L362.394 246.345L371.98 236.759L386.731 222.007L411.153 246.429L411.237 246.345L435.575 270.682L459.912 246.344L469.165 237.092L484.25 222.007L508.587 246.344L508.501 246.431L532.748 270.678L557.086 246.341L569.984 233.443L581.423 222.004L605.761 246.341L605.666 246.437L629.914 270.685L654.251 246.348L678.589 222.011L702.926 246.348L702.84 246.435L727.087 270.682L727.088 270.682L751.425 246.345L775.763 222.007L790.051 236.295L790.135 236.211L824.606 270.682L824.606 270.682L848.944 246.345L873.281 222.007L897.618 246.344L897.532 246.431L921.78 270.679L946.117 246.341L946.118 246.341L970.455 222.004L994.793 246.341L994.787 246.347L1019.12 270.682L1043.46 246.344L1067.8 222.007L1092.13 246.344L1092.05 246.431L1116.3 270.679L1140.63 246.341L1164.97 222.004L1181.25 238.279L1181.33 238.195L1213.81 270.679L1238.15 246.341L1262.49 222.004L1286.83 246.341L1286.74 246.428L1310.99 270.675L1335.33 246.337Z" fill="#8CE8E9"/>
<path fill-rule="evenodd" clip-rule="evenodd" d="M1335.33 52.3374L1359.66 28L1384 52.3374L1359.66 76.6749L1335.33 101.012L1310.99 125.35L1291.37 105.735L1286.65 101.012L1262.4 76.7647L1238.15 101.016L1213.81 125.354L1197.62 109.162L1189.48 101.016L1165.05 76.5945L1164.97 76.6783L1140.63 101.016L1116.3 125.354L1100.98 110.04L1091.96 101.016L1067.71 76.7686L1043.46 101.019L1019.12 125.357L1003.42 109.659L994.785 101.019L970.449 76.6841L946.118 101.016L921.78 125.354L910.138 113.712L897.443 101.016L873.195 76.7687L848.943 101.019L824.606 125.357L810.403 111.154L800.269 101.019L775.847 76.5977L775.763 76.6822L751.425 101.019L727.088 125.357L702.75 101.019L702.75 101.02L678.502 76.7718L654.252 101.023L629.914 125.36L605.577 101.023L581.328 76.774L557.086 101.016L544.188 113.915L532.748 125.354L508.411 101.016L484.164 76.7685L459.912 101.019L450.659 110.273L435.575 125.357L411.237 101.02L390.777 80.5595L390.693 80.6438L386.731 76.6822L362.394 101.019L352.807 110.607L338.056 125.357L313.719 101.019L313.719 101.02L289.471 76.7719L265.22 101.023L260.368 105.875L240.883 125.36L224.296 108.774L216.545 101.023L192.21 76.6879L160.061 108.837L160.06 108.837L143.541 125.357L119.203 101.019L94.9555 76.7719L70.7047 101.023L60.5484 111.179L46.3672 125.36L33.2201 112.214L22.0298 101.023L4.28447 83.2778L4.05992 83.5023L-2.61679 76.8256L-26.8139 101.023L-35.1276 109.336L-51.1513 125.36L-66.8954 109.617L-75.4888 101.023L-99.7364 76.7755L-123.988 101.027L-123.987 101.027L-148.325 125.364L-164.312 109.378L-164.312 109.378L-197 76.6895L-172.663 52.352L-148.325 76.6894L-123.987 52.3515L-123.988 52.3511L-99.6501 28.0137L-75.3127 52.3511L-75.3993 52.4377L-51.1513 76.6855L-26.9542 52.4882L-27 52.4424L-2.66255 28.1049L10.6146 41.3821L10.8391 41.1576L46.3672 76.6855L70.7043 52.3482L80.8604 42.1921L95.0418 28.0107L119.379 52.3482L119.293 52.4345L143.541 76.6816L143.541 76.6822L167.878 52.3447L167.878 52.3443L192.215 28.0068L216.553 52.3443L216.547 52.35L240.883 76.6855L265.22 52.3482L270.072 47.4959L289.558 28.0107L313.895 52.3482L313.809 52.4346L338.056 76.6822L338.056 76.6816L362.394 52.3447L371.98 42.7587L386.731 28.0073L411.153 52.4291L411.237 52.3447L435.575 76.6822L459.912 52.3443L469.165 43.0922L484.25 28.0068L508.587 52.3443L508.501 52.4306L532.748 76.6783L557.086 52.3413L569.984 39.4429L581.423 28.0039L605.761 52.3414L605.666 52.4365L629.914 76.6851L654.251 52.3482L678.589 28.0107L702.926 52.3482L702.84 52.4346L727.087 76.6822L727.088 76.6816L751.425 52.3447L775.763 28.0068L790.051 42.295L790.135 42.2109L824.606 76.6816L824.606 76.6822L848.944 52.3447L873.281 28.0068L897.618 52.3443L897.532 52.4308L921.78 76.6787L946.117 52.3408L946.118 52.3413L970.455 28.0039L994.793 52.3414L994.787 52.3471L1019.12 76.6816L1043.46 52.3443L1067.8 28.0068L1092.13 52.3443L1092.05 52.4309L1116.3 76.6787L1140.63 52.3408L1164.97 28.0039L1181.25 44.2793L1181.33 44.1951L1213.81 76.6787L1238.15 52.3413L1262.49 28.0039L1286.83 52.3414L1286.74 52.4275L1310.99 76.6748L1335.33 52.3374Z" fill="#8CE8E9"/>
<path fill-rule="evenodd" clip-rule="evenodd" d="M1335.33 828.337L1359.66 804L1384 828.337L1359.66 852.675L1335.33 877.012L1310.99 901.35L1291.37 881.735L1286.65 877.012L1262.4 852.765L1238.15 877.016L1213.81 901.354L1197.62 885.162L1189.48 877.016L1165.05 852.595L1164.97 852.678L1140.63 877.016L1116.3 901.354L1100.98 886.04L1091.96 877.016L1067.71 852.769L1043.46 877.019L1019.12 901.357L1003.42 885.659L994.785 877.019L970.449 852.684L946.118 877.016L921.78 901.354L910.138 889.712L897.443 877.016L873.195 852.769L848.943 877.019L824.606 901.357L810.403 887.154L800.269 877.019L775.847 852.598L775.763 852.682L751.425 877.019L727.088 901.357L702.75 877.019L702.75 877.02L678.502 852.772L654.252 877.023L629.914 901.36L605.577 877.023L581.328 852.774L557.086 877.016L544.188 889.915L532.748 901.354L508.411 877.016L484.164 852.769L459.912 877.019L450.659 886.273L435.575 901.357L411.237 877.02L390.777 856.559L390.693 856.644L386.731 852.682L362.394 877.019L352.807 886.607L338.056 901.357L313.719 877.019L313.719 877.02L289.471 852.772L265.22 877.023L260.368 881.875L240.883 901.36L224.296 884.774L216.545 877.023L192.21 852.688L160.061 884.837L160.06 884.837L143.541 901.357L119.203 877.019L94.9555 852.772L70.7047 877.023L60.5484 887.179L46.3672 901.36L33.2201 888.214L22.0298 877.023L4.28447 859.278L4.05992 859.502L-2.61679 852.826L-26.8139 877.023L-35.1276 885.336L-51.1513 901.36L-66.8954 885.617L-75.4888 877.023L-99.7364 852.776L-123.988 877.027L-123.987 877.027L-148.325 901.364L-164.312 885.378L-164.312 885.378L-197 852.689L-172.663 828.352L-148.325 852.689L-123.987 828.351L-123.988 828.351L-99.6501 804.014L-75.3127 828.351L-75.3993 828.438L-51.1513 852.686L-26.9542 828.488L-27 828.442L-2.66255 804.105L10.6146 817.382L10.8391 817.158L46.3672 852.686L70.7043 828.348L80.8604 818.192L95.0418 804.011L119.379 828.348L119.293 828.435L143.541 852.682L143.541 852.682L167.878 828.345L167.878 828.344L192.215 804.007L216.553 828.344L216.547 828.35L240.883 852.686L265.22 828.348L270.072 823.496L289.558 804.011L313.895 828.348L313.809 828.435L338.056 852.682L338.056 852.682L362.394 828.345L371.98 818.759L386.731 804.007L411.153 828.429L411.237 828.345L435.575 852.682L459.912 828.344L469.165 819.092L484.25 804.007L508.587 828.344L508.501 828.431L532.748 852.678L557.086 828.341L569.984 815.443L581.423 804.004L605.761 828.341L605.666 828.437L629.914 852.685L654.251 828.348L678.589 804.011L702.926 828.348L702.84 828.435L727.087 852.682L727.088 852.682L751.425 828.345L775.763 804.007L790.051 818.295L790.135 818.211L824.606 852.682L824.606 852.682L848.944 828.345L873.281 804.007L897.618 828.344L897.532 828.431L921.78 852.679L946.117 828.341L946.118 828.341L970.455 804.004L994.793 828.341L994.787 828.347L1019.12 852.682L1043.46 828.344L1067.8 804.007L1092.13 828.344L1092.05 828.431L1116.3 852.679L1140.63 828.341L1164.97 804.004L1181.25 820.279L1181.33 820.195L1213.81 852.679L1238.15 828.341L1262.49 804.004L1286.83 828.341L1286.74 828.428L1310.99 852.675L1335.33 828.337Z" fill="#8CE8E9"/>
<path fill-rule="evenodd" clip-rule="evenodd" d="M1335.33 343.337L1359.66 319L1384 343.337L1359.66 367.675L1335.33 392.012L1310.99 416.35L1291.37 396.735L1286.65 392.012L1262.4 367.765L1238.15 392.016L1213.81 416.354L1197.62 400.162L1189.48 392.016L1165.05 367.595L1164.97 367.678L1140.63 392.016L1116.3 416.354L1100.98 401.04L1091.96 392.016L1067.71 367.769L1043.46 392.019L1019.12 416.357L1003.42 400.659L994.785 392.019L970.449 367.684L946.118 392.016L921.78 416.354L910.138 404.712L897.443 392.016L873.195 367.769L848.943 392.019L824.606 416.357L810.403 402.154L800.269 392.019L775.847 367.598L775.763 367.682L751.425 392.019L727.088 416.357L702.75 392.019L702.75 392.02L678.502 367.772L654.252 392.023L629.914 416.36L605.577 392.023L581.328 367.774L557.086 392.016L544.188 404.915L532.748 416.354L508.411 392.016L484.164 367.769L459.912 392.019L450.659 401.273L435.575 416.357L411.237 392.02L390.777 371.559L390.693 371.644L386.731 367.682L362.394 392.019L352.807 401.607L338.056 416.357L313.719 392.019L313.719 392.02L289.471 367.772L265.22 392.023L260.368 396.875L240.883 416.36L224.296 399.774L216.545 392.023L192.21 367.688L160.061 399.837L160.06 399.837L143.541 416.357L119.203 392.019L94.9555 367.772L70.7047 392.023L60.5484 402.179L46.3672 416.36L33.2201 403.214L22.0298 392.023L4.28447 374.278L4.05992 374.502L-2.61679 367.826L-26.8139 392.023L-35.1276 400.336L-51.1513 416.36L-66.8954 400.617L-75.4888 392.023L-99.7364 367.776L-123.988 392.027L-123.987 392.027L-148.325 416.364L-164.312 400.378L-164.312 400.378L-197 367.689L-172.663 343.352L-148.325 367.689L-123.987 343.351L-123.988 343.351L-99.6501 319.014L-75.3127 343.351L-75.3993 343.438L-51.1513 367.686L-26.9542 343.488L-27 343.442L-2.66255 319.105L10.6146 332.382L10.8391 332.158L46.3672 367.686L70.7043 343.348L80.8604 333.192L95.0418 319.011L119.379 343.348L119.293 343.435L143.541 367.682L143.541 367.682L167.878 343.345L167.878 343.344L192.215 319.007L216.553 343.344L216.547 343.35L240.883 367.686L265.22 343.348L270.072 338.496L289.558 319.011L313.895 343.348L313.809 343.435L338.056 367.682L338.056 367.682L362.394 343.345L371.98 333.759L386.731 319.007L411.153 343.429L411.237 343.345L435.575 367.682L459.912 343.344L469.165 334.092L484.25 319.007L508.587 343.344L508.501 343.431L532.748 367.678L557.086 343.341L569.984 330.443L581.423 319.004L605.761 343.341L605.666 343.437L629.914 367.685L654.251 343.348L678.589 319.011L702.926 343.348L702.84 343.435L727.087 367.682L727.088 367.682L751.425 343.345L775.763 319.007L790.051 333.295L790.135 333.211L824.606 367.682L824.606 367.682L848.944 343.345L873.281 319.007L897.618 343.344L897.532 343.431L921.78 367.679L946.117 343.341L946.118 343.341L970.455 319.004L994.793 343.341L994.787 343.347L1019.12 367.682L1043.46 343.344L1067.8 319.007L1092.13 343.344L1092.05 343.431L1116.3 367.679L1140.63 343.341L1164.97 319.004L1181.25 335.279L1181.33 335.195L1213.81 367.679L1238.15 343.341L1262.49 319.004L1286.83 343.341L1286.74 343.428L1310.99 367.675L1335.33 343.337Z" fill="#8CE8E9"/>
<path fill-rule="evenodd" clip-rule="evenodd" d="M1335.33 440.337L1359.66 416L1384 440.337L1359.66 464.675L1335.33 489.012L1310.99 513.35L1291.37 493.735L1286.65 489.012L1262.4 464.765L1238.15 489.016L1213.81 513.354L1197.62 497.162L1189.48 489.016L1165.05 464.595L1164.97 464.678L1140.63 489.016L1116.3 513.354L1100.98 498.04L1091.96 489.016L1067.71 464.769L1043.46 489.019L1019.12 513.357L1003.42 497.659L994.785 489.019L970.449 464.684L946.118 489.016L921.78 513.354L910.138 501.712L897.443 489.016L873.195 464.769L848.943 489.019L824.606 513.357L810.403 499.154L800.269 489.019L775.847 464.598L775.763 464.682L751.425 489.019L727.088 513.357L702.75 489.019L702.75 489.02L678.502 464.772L654.252 489.023L629.914 513.36L605.577 489.023L581.328 464.774L557.086 489.016L544.188 501.915L532.748 513.354L508.411 489.016L484.164 464.769L459.912 489.019L450.659 498.273L435.575 513.357L411.237 489.02L390.777 468.559L390.693 468.644L386.731 464.682L362.394 489.019L352.807 498.607L338.056 513.357L313.719 489.019L313.719 489.02L289.471 464.772L265.22 489.023L260.368 493.875L240.883 513.36L224.296 496.774L216.545 489.023L192.21 464.688L160.061 496.837L160.06 496.837L143.541 513.357L119.203 489.019L94.9555 464.772L70.7047 489.023L60.5484 499.179L46.3672 513.36L33.2201 500.214L22.0298 489.023L4.28447 471.278L4.05992 471.502L-2.61679 464.826L-26.8139 489.023L-35.1276 497.336L-51.1513 513.36L-66.8954 497.617L-75.4888 489.023L-99.7364 464.776L-123.988 489.027L-123.987 489.027L-148.325 513.364L-164.312 497.378L-164.312 497.378L-197 464.689L-172.663 440.352L-148.325 464.689L-123.987 440.351L-123.988 440.351L-99.6501 416.014L-75.3127 440.351L-75.3993 440.438L-51.1513 464.686L-26.9542 440.488L-27 440.442L-2.66255 416.105L10.6146 429.382L10.8391 429.158L46.3672 464.686L70.7043 440.348L80.8604 430.192L95.0418 416.011L119.379 440.348L119.293 440.435L143.541 464.682L143.541 464.682L167.878 440.345L167.878 440.344L192.215 416.007L216.553 440.344L216.547 440.35L240.883 464.686L265.22 440.348L270.072 435.496L289.558 416.011L313.895 440.348L313.809 440.435L338.056 464.682L338.056 464.682L362.394 440.345L371.98 430.759L386.731 416.007L411.153 440.429L411.237 440.345L435.575 464.682L459.912 440.344L469.165 431.092L484.25 416.007L508.587 440.344L508.501 440.431L532.748 464.678L557.086 440.341L569.984 427.443L581.423 416.004L605.761 440.341L605.666 440.437L629.914 464.685L654.251 440.348L678.589 416.011L702.926 440.348L702.84 440.435L727.087 464.682L727.088 464.682L751.425 440.345L775.763 416.007L790.051 430.295L790.135 430.211L824.606 464.682L824.606 464.682L848.944 440.345L873.281 416.007L897.618 440.344L897.532 440.431L921.78 464.679L946.117 440.341L946.118 440.341L970.455 416.004L994.793 440.341L994.787 440.347L1019.12 464.682L1043.46 440.344L1067.8 416.007L1092.13 440.344L1092.05 440.431L1116.3 464.679L1140.63 440.341L1164.97 416.004L1181.25 432.279L1181.33 432.195L1213.81 464.679L1238.15 440.341L1262.49 416.004L1286.83 440.341L1286.74 440.428L1310.99 464.675L1335.33 440.337Z" fill="#8CE8E9"/>
<path fill-rule="evenodd" clip-rule="evenodd" d="M1335.33 537.337L1359.66 513L1384 537.337L1359.66 561.675L1335.33 586.012L1310.99 610.35L1291.37 590.735L1286.65 586.012L1262.4 561.765L1238.15 586.016L1213.81 610.354L1197.62 594.162L1189.48 586.016L1165.05 561.595L1164.97 561.678L1140.63 586.016L1116.3 610.354L1100.98 595.04L1091.96 586.016L1067.71 561.769L1043.46 586.019L1019.12 610.357L1003.42 594.659L994.785 586.019L970.449 561.684L946.118 586.016L921.78 610.354L910.138 598.712L897.443 586.016L873.195 561.769L848.943 586.019L824.606 610.357L810.403 596.154L800.269 586.019L775.847 561.598L775.763 561.682L751.425 586.019L727.088 610.357L702.75 586.019L702.75 586.02L678.502 561.772L654.252 586.023L629.914 610.36L605.577 586.023L581.328 561.774L557.086 586.016L544.188 598.915L532.748 610.354L508.411 586.016L484.164 561.769L459.912 586.019L450.659 595.273L435.575 610.357L411.237 586.02L390.777 565.559L390.693 565.644L386.731 561.682L362.394 586.019L352.807 595.607L338.056 610.357L313.719 586.019L313.719 586.02L289.471 561.772L265.22 586.023L260.368 590.875L240.883 610.36L224.296 593.774L216.545 586.023L192.21 561.688L160.061 593.837L160.06 593.837L143.541 610.357L119.203 586.019L94.9555 561.772L70.7047 586.023L60.5484 596.179L46.3672 610.36L33.2201 597.214L22.0298 586.023L4.28447 568.278L4.05992 568.502L-2.61679 561.826L-26.8139 586.023L-35.1276 594.336L-51.1513 610.36L-66.8954 594.617L-75.4888 586.023L-99.7364 561.776L-123.988 586.027L-123.987 586.027L-148.325 610.364L-164.312 594.378L-164.312 594.378L-197 561.689L-172.663 537.352L-148.325 561.689L-123.987 537.351L-123.988 537.351L-99.6501 513.014L-75.3127 537.351L-75.3993 537.438L-51.1513 561.686L-26.9542 537.488L-27 537.442L-2.66255 513.105L10.6146 526.382L10.8391 526.158L46.3672 561.686L70.7043 537.348L80.8604 527.192L95.0418 513.011L119.379 537.348L119.293 537.435L143.541 561.682L143.541 561.682L167.878 537.345L167.878 537.344L192.215 513.007L216.553 537.344L216.547 537.35L240.883 561.686L265.22 537.348L270.072 532.496L289.558 513.011L313.895 537.348L313.809 537.435L338.056 561.682L338.056 561.682L362.394 537.345L371.98 527.759L386.731 513.007L411.153 537.429L411.237 537.345L435.575 561.682L459.912 537.344L469.165 528.092L484.25 513.007L508.587 537.344L508.501 537.431L532.748 561.678L557.086 537.341L569.984 524.443L581.423 513.004L605.761 537.341L605.666 537.437L629.914 561.685L654.251 537.348L678.589 513.011L702.926 537.348L702.84 537.435L727.087 561.682L727.088 561.682L751.425 537.345L775.763 513.007L790.051 527.295L790.135 527.211L824.606 561.682L824.606 561.682L848.944 537.345L873.281 513.007L897.618 537.344L897.532 537.431L921.78 561.679L946.117 537.341L946.118 537.341L970.455 513.004L994.793 537.341L994.787 537.347L1019.12 561.682L1043.46 537.344L1067.8 513.007L1092.13 537.344L1092.05 537.431L1116.3 561.679L1140.63 537.341L1164.97 513.004L1181.25 529.279L1181.33 529.195L1213.81 561.679L1238.15 537.341L1262.49 513.004L1286.83 537.341L1286.74 537.428L1310.99 561.675L1335.33 537.337Z" fill="#8CE8E9"/>
<g style="mix-blend-mode:multiply">
<rect x="-187" y="-124" width="1654" height="1079" fill="url(#paint0_linear_54_1626)"/>
</g>
<g style="mix-blend-mode:screen">
<rect x="-154" y="-27" width="1654" height="1079" fill="url(#paint1_linear_54_1626)"/>
</g>
<g style="mix-blend-mode:overlay">
<rect x="-118" y="-570" width="1516" height="1972" fill="url(#paint2_radial_54_1626)"/>
</g>
<g style="mix-blend-mode:overlay" opacity="0.5">
<rect width="1280" height="832" fill="#8CE8E9"/>
</g>
<rect opacity="0.1" width="1280" height="832" fill="white"/>
</g>
<defs>
<linearGradient id="paint0_linear_54_1626" x1="640" y1="-124" x2="640" y2="955" gradientUnits="userSpaceOnUse">
<stop stop-color="#4F6EBF" stop-opacity="0.63"/>
<stop offset="0.0001" stop-color="#4F6EBF" stop-opacity="0.265588"/>
<stop offset="0.375" stop-color="#4F6EBF" stop-opacity="0"/>
<stop offset="0.760417" stop-color="#5371C0" stop-opacity="0.0832849"/>
<stop offset="0.9999" stop-color="#5E7AC2" stop-opacity="0.312268"/>
<stop offset="1" stop-color="#738AC6" stop-opacity="0.739583"/>
</linearGradient>
<linearGradient id="paint1_linear_54_1626" x1="673" y1="-27" x2="673" y2="1052" gradientUnits="userSpaceOnUse">
<stop stop-color="#4F6EBF" stop-opacity="0.63"/>
<stop offset="0.0001" stop-color="#4F6EBF" stop-opacity="0.265588"/>
<stop offset="0.375" stop-color="#4F6EBF" stop-opacity="0"/>
<stop offset="0.760417" stop-color="#5371C0" stop-opacity="0.0832849"/>
<stop offset="0.9999" stop-color="#5E7AC2" stop-opacity="0.312268"/>
<stop offset="1" stop-color="#738AC6" stop-opacity="0.739583"/>
</linearGradient>
<radialGradient id="paint2_radial_54_1626" cx="0" cy="0" r="1" gradientUnits="userSpaceOnUse" gradientTransform="translate(640 416) rotate(90) scale(986 758)">
<stop stop-color="white"/>
<stop offset="1" stop-color="#D9D9D9" stop-opacity="0"/>
</radialGradient>
<clipPath id="clip0_54_1626">
<rect width="1280" height="832" fill="white"/>
</clipPath>
</defs>
</svg>
