<svg width="449" height="743" viewBox="0 0 449 743" fill="none" xmlns="http://www.w3.org/2000/svg">
<g clip-path="url(#clip0_48_1386)">
<path opacity="0.3" fill-rule="evenodd" clip-rule="evenodd" d="M-6.78888 -98.9046C-10.6496 -93.72 -10.835 -86.7616 -7.53013 -81.4294L-32.0948 -54.0389C-37.5189 -56.6799 -44.1038 -55.9536 -48.8334 -52.0241C-85.5088 10.5614 -74.418 92.3514 -18.3174 142.664C37.5571 192.774 119.629 195.114 177.827 152.405C181.827 147.034 181.881 139.759 178.197 134.36L202.529 107.229C208.062 110.231 214.965 109.601 219.872 105.525C256.547 42.9392 245.456 -38.8509 189.356 -89.1637C133.481 -139.274 51.409 -141.613 -6.78888 -98.9046ZM196.95 102.795L173.2 129.276L120.856 82.3323C96.4743 97.8182 63.8469 95.9428 41.2867 75.71C18.7265 55.4773 13.3235 23.2458 26.0735 -2.67162L-26.4009 -49.7324L-2.65132 -76.2141L49.7674 -29.2034C74.1742 -44.8517 106.939 -43.0296 129.573 -22.7316C152.206 -2.43352 157.571 29.9409 144.662 55.9009L196.95 102.795ZM121.102 57.6967C103.842 76.9419 74.2489 78.5514 55.0037 61.2917C35.7585 44.032 34.149 14.4389 51.4087 -4.80624C68.6684 -24.0514 98.2615 -25.661 117.507 -8.40127C136.752 8.85844 138.361 38.4515 121.102 57.6967ZM63.6709 51.9525C77.6562 64.4949 99.1612 63.3253 111.704 49.34C124.246 35.3548 123.076 13.8498 109.091 1.30735C95.1059 -11.2351 73.6009 -10.0654 61.0585 3.91983C48.516 17.9051 49.6857 39.41 63.6709 51.9525ZM67.5306 47.6494C79.1392 58.0605 96.9898 57.0896 107.401 45.4809C117.812 33.8722 116.841 16.0217 105.232 5.61065C93.6236 -4.8004 75.7731 -3.82953 65.362 7.77916C54.951 19.3878 55.9219 37.2384 67.5306 47.6494Z" fill="url(#paint0_linear_48_1386)"/>
<path opacity="0.2" fill-rule="evenodd" clip-rule="evenodd" d="M282.362 110.286C284.686 113.057 288.449 114.056 291.778 112.946L303.514 129.85C301.377 132.461 300.922 136.139 302.451 139.22C331.778 167.258 377.723 171.778 412.345 147.74C446.828 123.798 458.694 79.4335 442.962 42.2481C440.554 39.3779 436.602 38.409 433.189 39.7174L421.563 22.9735C423.911 20.3499 424.459 16.5117 422.874 13.3152C393.547 -14.7229 347.602 -19.2433 312.979 4.79515C278.496 28.7364 266.631 73.1006 282.362 110.286ZM418.43 25.4372L429.777 41.7807L397.472 64.2097C402.753 79.4774 397.521 96.9916 383.598 106.658C369.676 116.325 351.437 115.105 338.978 104.822L306.593 127.307L295.246 110.963L327.596 88.5025C322.23 73.1998 327.45 55.603 341.418 45.905C355.386 36.2071 373.698 37.4657 386.16 47.8417L418.43 25.4372ZM384.096 60.8947C392.342 72.7719 389.399 89.0852 377.522 97.3314C365.645 105.578 349.331 102.634 341.085 90.7571C332.839 78.88 335.782 62.5667 347.659 54.3204C359.537 46.0741 375.85 49.0176 384.096 60.8947ZM373.557 91.4089C382.188 85.4164 384.327 73.5618 378.335 64.9307C372.342 56.2997 360.487 54.1608 351.856 60.1533C343.225 66.1457 341.086 78.0004 347.079 86.6314C353.071 95.2624 364.926 97.4014 373.557 91.4089ZM371.713 88.7532C378.877 83.7791 380.653 73.9389 375.679 66.7746C370.704 59.6103 360.864 57.8348 353.7 62.809C346.536 67.7831 344.76 77.6233 349.734 84.7876C354.708 91.9519 364.549 93.7273 371.713 88.7532Z" fill="url(#paint1_linear_48_1386)"/>
<path opacity="0.5" fill-rule="evenodd" clip-rule="evenodd" d="M19.8712 322.813C21.7705 325.079 24.8471 325.896 27.5686 324.988L37.1643 338.809C35.4168 340.944 35.0455 343.951 36.2959 346.471C60.2728 369.392 97.8339 373.087 126.139 353.435C154.331 333.861 164.032 297.589 151.169 267.188C149.201 264.843 145.97 264.051 143.18 265.121L133.675 251.431C135.594 249.286 136.043 246.149 134.747 243.535C110.77 220.613 73.2081 216.917 44.9022 236.57C16.7109 256.143 7.01007 292.413 19.8712 322.813ZM131.113 253.445L140.391 266.807L113.98 285.144C118.297 297.627 114.02 311.945 102.637 319.848C91.2547 327.751 76.3441 326.754 66.1577 318.347L39.6812 336.73L30.4039 323.368L56.852 305.005C52.4647 292.494 56.7326 278.108 68.1522 270.179C79.5718 262.25 94.5426 263.279 104.731 271.762L131.113 253.445ZM103.043 282.434C109.785 292.144 107.379 305.481 97.6684 312.223C87.9582 318.965 74.6213 316.558 67.8795 306.848C61.1378 297.138 63.5442 283.801 73.2544 277.059C82.9645 270.317 96.3015 272.724 103.043 282.434ZM94.4273 307.381C101.484 302.482 103.232 292.79 98.3331 285.734C93.4339 278.677 83.7421 276.929 76.6858 281.828C69.6296 286.727 67.8809 296.419 72.78 303.475C77.6792 310.531 87.371 312.28 94.4273 307.381ZM92.9196 305.21C98.7768 301.143 100.228 293.098 96.1617 287.241C92.0951 281.384 84.0502 279.932 78.1931 283.999C72.3359 288.066 70.8843 296.11 74.951 301.968C79.0176 307.825 87.0624 309.276 92.9196 305.21Z" fill="url(#paint2_linear_48_1386)"/>
<path opacity="0.5" fill-rule="evenodd" clip-rule="evenodd" d="M491.982 450.412C486.877 454.654 479.694 455.309 473.938 452.186L448.621 480.416C452.454 486.032 452.398 493.601 448.238 499.19C387.683 543.629 302.287 541.196 244.149 489.056C185.777 436.707 174.237 351.606 212.396 286.487C217.317 282.397 224.169 281.641 229.813 284.389L255.373 255.889C251.934 250.341 252.127 243.101 256.143 237.706C316.698 193.268 402.093 195.702 460.23 247.841C518.602 300.191 530.142 385.293 491.982 450.412ZM468.133 447.572L443.421 475.126L388.958 426.281C363.589 442.394 329.64 440.442 306.167 419.391C282.693 398.339 277.071 364.803 290.337 337.836L235.738 288.869L260.449 261.315L314.99 310.229C340.385 293.947 374.477 295.843 398.027 316.963C421.576 338.083 427.159 371.768 413.727 398.779L468.133 447.572ZM389.214 400.647C371.255 420.671 340.464 422.346 320.439 404.387C300.415 386.429 298.74 355.637 316.699 335.613C334.657 315.589 365.449 313.914 385.473 331.872C405.498 349.831 407.172 380.622 389.214 400.647ZM329.457 394.67C344.009 407.72 366.385 406.503 379.435 391.952C392.485 377.4 391.268 355.024 376.717 341.974C362.165 328.924 339.789 330.141 326.739 344.692C313.689 359.244 314.906 381.62 329.457 394.67ZM333.473 390.193C345.551 401.025 364.125 400.015 374.957 387.936C385.79 375.858 384.78 357.284 372.701 346.452C360.622 335.619 342.049 336.629 331.216 348.708C320.384 360.787 321.394 379.36 333.473 390.193Z" fill="url(#paint3_linear_48_1386)"/>
<path fill-rule="evenodd" clip-rule="evenodd" d="M266.504 5.37143L183.65 5.37142C181.289 5.37142 179.335 7.11189 179 9.37964C183.374 30.8467 202.36 47 225.119 47C247.787 47 266.711 30.9767 271.185 9.63892C270.966 7.24592 268.954 5.37143 266.504 5.37143Z" fill="url(#paint4_linear_48_1386)"/>
<path fill-rule="evenodd" clip-rule="evenodd" d="M182.882 -5.37079C182.667 -3.63297 182.556 -1.86271 182.556 -0.0665091C182.556 1.77598 182.673 3.59118 182.899 5.37206L267.484 5.37207C267.71 3.59118 267.827 1.77599 267.827 -0.0665016C267.827 -1.8627 267.716 -3.63296 267.5 -5.37079L182.882 -5.37079Z" fill="#373636"/>
<circle cx="225.165" cy="0.0401055" r="19.9678" fill="#373636"/>
<circle cx="225.377" cy="-0.151562" r="14.1365" fill="url(#paint5_linear_48_1386)"/>
<circle cx="225.342" cy="-0.136763" r="9.36545" stroke="#373636" stroke-width="1.76707"/>
</g>
<defs>
<linearGradient id="paint0_linear_48_1386" x1="281.664" y1="-61.923" x2="-108.774" y2="111.709" gradientUnits="userSpaceOnUse">
<stop offset="0.4375" stop-color="white"/>
<stop offset="0.9999" stop-color="white" stop-opacity="0.0965517"/>
<stop offset="1" stop-color="white" stop-opacity="0"/>
</linearGradient>
<linearGradient id="paint1_linear_48_1386" x1="339.718" y1="-41.9266" x2="383.823" y2="192.974" gradientUnits="userSpaceOnUse">
<stop offset="0.4375" stop-color="white"/>
<stop offset="0.9999" stop-color="white" stop-opacity="0.0965517"/>
<stop offset="1" stop-color="white" stop-opacity="0"/>
</linearGradient>
<linearGradient id="paint2_linear_48_1386" x1="66.7628" y1="198.372" x2="102.82" y2="390.416" gradientUnits="userSpaceOnUse">
<stop offset="0.4375" stop-color="white"/>
<stop offset="0.9999" stop-color="white" stop-opacity="0.0965517"/>
<stop offset="1" stop-color="white" stop-opacity="0"/>
</linearGradient>
<linearGradient id="paint3_linear_48_1386" x1="556.277" y1="276.186" x2="150.03" y2="456.848" gradientUnits="userSpaceOnUse">
<stop offset="0.4375" stop-color="white"/>
<stop offset="0.9999" stop-color="white" stop-opacity="0.0965517"/>
<stop offset="1" stop-color="white" stop-opacity="0"/>
</linearGradient>
<linearGradient id="paint4_linear_48_1386" x1="225.093" y1="47" x2="225.093" y2="5.37143" gradientUnits="userSpaceOnUse">
<stop stop-color="#F98054"/>
<stop offset="1" stop-color="#F01515"/>
</linearGradient>
<linearGradient id="paint5_linear_48_1386" x1="225.377" y1="-14.2881" x2="225.377" y2="13.985" gradientUnits="userSpaceOnUse">
<stop offset="0.0677083" stop-color="#D9D9D9"/>
<stop offset="1" stop-color="white"/>
</linearGradient>
<clipPath id="clip0_48_1386">
<rect width="449" height="743" fill="white"/>
</clipPath>
</defs>
</svg>
