<svg width="808" height="808" viewBox="0 0 808 808" fill="none" xmlns="http://www.w3.org/2000/svg">
<path fill-rule="evenodd" clip-rule="evenodd" d="M95.8538 364H712.854C730.434 364 744.986 351.039 747.477 334.151C714.906 174.29 573.52 54 404.039 54C235.241 54 94.3121 173.323 61 332.221C62.6259 350.041 77.6097 364 95.8538 364Z" fill="url(#paint0_linear_48_1517)"/>
<path fill-rule="evenodd" clip-rule="evenodd" d="M712.624 444L95.6238 444C78.044 444 63.4913 456.961 61.0003 473.848C93.5715 633.71 234.957 754 404.438 754C573.237 754 714.165 634.677 747.478 475.779C745.852 457.959 730.868 444 712.624 444Z" fill="url(#paint1_linear_48_1517)"/>
<path fill-rule="evenodd" clip-rule="evenodd" d="M718.567 444C720.173 431.059 721 417.876 721 404.5C721 390.779 720.13 377.262 718.441 364L88.5588 364C86.8703 377.262 86 390.779 86 404.5C86 417.876 86.8271 431.059 88.4331 444H718.567Z" fill="#373636"/>
<path fill-rule="evenodd" clip-rule="evenodd" d="M174 363.61V139.656C210.483 107.894 253.601 83.5567 301 69V363.61H174Z" fill="url(#paint2_linear_48_1517)"/>
<path fill-rule="evenodd" clip-rule="evenodd" d="M509 364.013V70C556.475 84.8814 599.603 109.591 636 141.745V364.013H509Z" fill="url(#paint3_linear_48_1517)"/>
<circle cx="403.697" cy="403.697" r="148.697" transform="rotate(-180 403.697 403.697)" fill="#373636"/>
<circle cx="402.381" cy="405.012" r="105.272" transform="rotate(-180 402.381 405.012)" fill="url(#paint4_linear_48_1517)"/>
<circle cx="402.381" cy="405.013" r="69.7427" transform="rotate(-180 402.381 405.013)" stroke="#373636" stroke-width="13.159"/>
<defs>
<linearGradient id="paint0_linear_48_1517" x1="404.239" y1="54" x2="404.239" y2="364" gradientUnits="userSpaceOnUse">
<stop stop-color="#656565"/>
<stop offset="1" stop-color="#222222"/>
</linearGradient>
<linearGradient id="paint1_linear_48_1517" x1="404.239" y1="754" x2="404.239" y2="444" gradientUnits="userSpaceOnUse">
<stop stop-color="white"/>
<stop offset="1" stop-color="#D9D9D9"/>
</linearGradient>
<linearGradient id="paint2_linear_48_1517" x1="237.5" y1="69" x2="237.5" y2="363.609" gradientUnits="userSpaceOnUse">
<stop stop-color="#F9DF54"/>
<stop offset="1" stop-color="#F07E15"/>
</linearGradient>
<linearGradient id="paint3_linear_48_1517" x1="572.5" y1="70" x2="572.5" y2="364.014" gradientUnits="userSpaceOnUse">
<stop stop-color="#F9DF54"/>
<stop offset="1" stop-color="#F07E15"/>
</linearGradient>
<linearGradient id="paint4_linear_48_1517" x1="402.381" y1="299.74" x2="402.381" y2="510.284" gradientUnits="userSpaceOnUse">
<stop offset="0.0677083" stop-color="#D9D9D9"/>
<stop offset="1" stop-color="white"/>
</linearGradient>
</defs>
</svg>
