<svg width="808" height="808" viewBox="0 0 808 808" fill="none" xmlns="http://www.w3.org/2000/svg">
<path fill-rule="evenodd" clip-rule="evenodd" d="M95.854 364H712.854C730.434 364 744.986 351.039 747.478 334.151C714.906 174.29 573.52 54 404.039 54C235.241 54 94.3123 173.323 61.0002 332.221C62.6261 350.041 77.6099 364 95.854 364Z" fill="url(#paint0_linear_48_1516)"/>
<path fill-rule="evenodd" clip-rule="evenodd" d="M712.624 444L95.6235 444C78.0437 444 63.4911 456.961 61 473.848C93.5712 633.71 234.957 754 404.438 754C573.236 754 714.165 634.677 747.477 475.779C745.851 457.959 730.868 444 712.624 444Z" fill="url(#paint1_linear_48_1516)"/>
<path fill-rule="evenodd" clip-rule="evenodd" d="M718.567 444C720.173 431.059 721 417.876 721 404.5C721 390.779 720.13 377.262 718.441 364L88.559 364C86.8706 377.262 86.0002 390.779 86.0002 404.5C86.0002 417.876 86.8274 431.059 88.4333 444H718.567Z" fill="#373636"/>
<circle cx="403.697" cy="403.697" r="148.697" transform="rotate(-180 403.697 403.697)" fill="#373636"/>
<circle cx="402.381" cy="405.012" r="105.272" transform="rotate(-180 402.381 405.012)" fill="url(#paint2_linear_48_1516)"/>
<circle cx="402.381" cy="405.013" r="69.7427" transform="rotate(-180 402.381 405.013)" stroke="#373636" stroke-width="13.159"/>
<rect x="608.935" y="63" width="166" height="180.927" rx="62" transform="rotate(45 608.935 63)" fill="url(#paint3_linear_48_1516)"/>
<rect width="166" height="180.927" rx="62" transform="matrix(-0.707107 0.707107 0.707107 0.707107 200.38 63.1458)" fill="url(#paint4_linear_48_1516)"/>
<defs>
<linearGradient id="paint0_linear_48_1516" x1="404.239" y1="54" x2="404.239" y2="364" gradientUnits="userSpaceOnUse">
<stop stop-color="#54B4F9"/>
<stop offset="1" stop-color="#1552F0"/>
</linearGradient>
<linearGradient id="paint1_linear_48_1516" x1="404.239" y1="754" x2="404.239" y2="444" gradientUnits="userSpaceOnUse">
<stop stop-color="white"/>
<stop offset="1" stop-color="#D9D9D9"/>
</linearGradient>
<linearGradient id="paint2_linear_48_1516" x1="402.381" y1="299.74" x2="402.381" y2="510.284" gradientUnits="userSpaceOnUse">
<stop offset="0.0677083" stop-color="#D9D9D9"/>
<stop offset="1" stop-color="white"/>
</linearGradient>
<linearGradient id="paint3_linear_48_1516" x1="691.935" y1="63" x2="691.935" y2="243.927" gradientUnits="userSpaceOnUse">
<stop stop-color="#F98054"/>
<stop offset="1" stop-color="#F01515"/>
</linearGradient>
<linearGradient id="paint4_linear_48_1516" x1="83" y1="0" x2="83" y2="180.927" gradientUnits="userSpaceOnUse">
<stop stop-color="#F98054"/>
<stop offset="1" stop-color="#F01515"/>
</linearGradient>
</defs>
</svg>
