<svg width="1432" height="1461" viewBox="0 0 1432 1461" fill="none" xmlns="http://www.w3.org/2000/svg">
<g filter="url(#filter0_f_33_269)">
<ellipse cx="716" cy="1314" rx="311" ry="47" fill="black" fill-opacity="0.8"/>
<path d="M1026.5 1314C1026.5 1317 1024.48 1320.04 1020.38 1323.07C1016.3 1326.09 1010.24 1329.02 1002.39 1331.82C986.699 1337.43 963.964 1342.49 935.836 1346.74C879.587 1355.24 801.863 1360.5 716 1360.5C630.137 1360.5 552.413 1355.24 496.165 1346.74C468.036 1342.49 445.301 1337.43 429.608 1331.82C421.759 1329.02 415.701 1326.09 411.615 1323.07C407.517 1320.04 405.5 1317 405.5 1314C405.5 1311 407.517 1307.96 411.615 1304.93C415.701 1301.91 421.759 1298.98 429.608 1296.18C445.301 1290.57 468.036 1285.51 496.165 1281.26C552.413 1272.76 630.137 1267.5 716 1267.5C801.863 1267.5 879.587 1272.76 935.836 1281.26C963.964 1285.51 986.699 1290.57 1002.39 1296.18C1010.24 1298.98 1016.3 1301.91 1020.38 1304.93C1024.48 1307.96 1026.5 1311 1026.5 1314Z" stroke="black"/>
</g>
<path fill-rule="evenodd" clip-rule="evenodd" d="M781.016 394C766.772 309.259 745.185 201.657 731.425 203.595C722.391 204.867 703.678 215.67 683.793 227.151C656.975 242.633 628.025 259.347 617.807 255.573C608.069 251.977 580.708 206.522 556.018 165.507C535.587 131.565 516.986 100.663 511.717 99.0398C500.081 95.4551 543.202 335.035 556.206 343.399C562.604 347.514 579.437 342.664 596.03 337.884C613.167 332.946 630.049 328.082 634.918 333.243C639.472 338.07 639.742 365.345 638.542 394H101.184C67.9454 394 41 420.945 41 454.184V1123.82C41 1157.05 67.9453 1184 101.184 1184H661.569L699.72 1308.13C704.696 1324.32 727.617 1324.32 732.593 1308.13L770.744 1184H1330.82C1364.05 1184 1391 1157.05 1391 1123.82V454.184C1391 420.945 1364.05 394 1330.82 394H781.016Z" fill="url(#paint0_linear_33_269)"/>
<g style="mix-blend-mode:multiply" opacity="0.8" filter="url(#filter1_i_33_269)">
<path fill-rule="evenodd" clip-rule="evenodd" d="M781.016 394C766.772 309.259 745.185 201.657 731.425 203.595C722.391 204.867 703.678 215.67 683.793 227.151C656.975 242.633 628.025 259.347 617.807 255.573C608.069 251.977 580.708 206.522 556.018 165.507C535.587 131.565 516.986 100.663 511.717 99.0398C500.081 95.4551 543.202 335.035 556.206 343.399C562.604 347.514 579.437 342.664 596.03 337.884C613.167 332.946 630.049 328.082 634.918 333.243C639.472 338.07 639.742 365.345 638.542 394H101.184C67.9454 394 41 420.945 41 454.184V1123.82C41 1157.05 67.9453 1184 101.184 1184H661.569L699.72 1308.13C704.696 1324.32 727.617 1324.32 732.593 1308.13L770.744 1184H1330.82C1364.05 1184 1391 1157.05 1391 1123.82V454.184C1391 420.945 1364.05 394 1330.82 394H781.016Z" fill="#FF3232" fill-opacity="0.1"/>
</g>
<g style="mix-blend-mode:screen" opacity="0.7" filter="url(#filter2_f_33_269)">
<rect x="1334" y="426" width="33" height="723" rx="16.5" fill="url(#paint1_linear_33_269)"/>
</g>
<path d="M732.562 1310.22C727.066 1326.58 703.934 1326.58 698.438 1310.22L658.956 1192.73C655.037 1181.07 663.714 1169 676.019 1169L754.981 1169C767.286 1169 775.963 1181.07 772.044 1192.73L732.562 1310.22Z" fill="url(#paint2_linear_33_269)"/>
<g style="mix-blend-mode:screen" opacity="0.7" filter="url(#filter3_f_33_269)">
<rect x="72" y="422" width="9.99997" height="723" rx="4.99998" transform="rotate(-90 72 422)" fill="url(#paint3_linear_33_269)"/>
</g>
<defs>
<filter id="filter0_f_33_269" x="375" y="1237" width="682" height="154" filterUnits="userSpaceOnUse" color-interpolation-filters="sRGB">
<feFlood flood-opacity="0" result="BackgroundImageFix"/>
<feBlend mode="normal" in="SourceGraphic" in2="BackgroundImageFix" result="shape"/>
<feGaussianBlur stdDeviation="15" result="effect1_foregroundBlur_33_269"/>
</filter>
<filter id="filter1_i_33_269" x="41" y="99" width="1350" height="1225.27" filterUnits="userSpaceOnUse" color-interpolation-filters="sRGB">
<feFlood flood-opacity="0" result="BackgroundImageFix"/>
<feBlend mode="normal" in="SourceGraphic" in2="BackgroundImageFix" result="shape"/>
<feColorMatrix in="SourceAlpha" type="matrix" values="0 0 0 0 0 0 0 0 0 0 0 0 0 0 0 0 0 0 127 0" result="hardAlpha"/>
<feOffset dy="4"/>
<feGaussianBlur stdDeviation="90"/>
<feComposite in2="hardAlpha" operator="arithmetic" k2="-1" k3="1"/>
<feColorMatrix type="matrix" values="0 0 0 0 0.783333 0 0 0 0 0 0 0 0 0 0 0 0 0 1 0"/>
<feBlend mode="normal" in2="shape" result="effect1_innerShadow_33_269"/>
</filter>
<filter id="filter2_f_33_269" x="1319" y="411" width="63" height="753" filterUnits="userSpaceOnUse" color-interpolation-filters="sRGB">
<feFlood flood-opacity="0" result="BackgroundImageFix"/>
<feBlend mode="normal" in="SourceGraphic" in2="BackgroundImageFix" result="shape"/>
<feGaussianBlur stdDeviation="7.5" result="effect1_foregroundBlur_33_269"/>
</filter>
<filter id="filter3_f_33_269" x="57" y="397" width="753" height="40" filterUnits="userSpaceOnUse" color-interpolation-filters="sRGB">
<feFlood flood-opacity="0" result="BackgroundImageFix"/>
<feBlend mode="normal" in="SourceGraphic" in2="BackgroundImageFix" result="shape"/>
<feGaussianBlur stdDeviation="7.5" result="effect1_foregroundBlur_33_269"/>
</filter>
<linearGradient id="paint0_linear_33_269" x1="223.5" y1="192.5" x2="1078.5" y2="1276" gradientUnits="userSpaceOnUse">
<stop stop-color="#EC6D4F"/>
<stop offset="0.511458" stop-color="#FA8B5B"/>
<stop offset="1" stop-color="#EC6D4F"/>
</linearGradient>
<linearGradient id="paint1_linear_33_269" x1="1350.5" y1="426" x2="1350.5" y2="1149" gradientUnits="userSpaceOnUse">
<stop offset="0.105208" stop-color="white"/>
<stop offset="0.183333" stop-color="white" stop-opacity="0.1"/>
<stop offset="0.251042" stop-color="white"/>
<stop offset="0.797917" stop-color="white" stop-opacity="0"/>
<stop offset="0.9125" stop-color="white"/>
</linearGradient>
<linearGradient id="paint2_linear_33_269" x1="715.5" y1="1361" x2="715.5" y2="1105" gradientUnits="userSpaceOnUse">
<stop offset="0.323958" stop-color="#EC6D4F"/>
<stop offset="0.69365" stop-color="#CB251A"/>
<stop offset="0.69375" stop-color="#C80000" stop-opacity="0"/>
</linearGradient>
<linearGradient id="paint3_linear_33_269" x1="77" y1="422" x2="77" y2="1145" gradientUnits="userSpaceOnUse">
<stop offset="0.105208" stop-color="white"/>
<stop offset="0.183333" stop-color="white" stop-opacity="0.1"/>
<stop offset="0.251042" stop-color="white"/>
<stop offset="0.797917" stop-color="white" stop-opacity="0"/>
<stop offset="0.9125" stop-color="white"/>
</linearGradient>
</defs>
</svg>
