<svg width="1432" height="1461" viewBox="0 0 1432 1461" fill="none" xmlns="http://www.w3.org/2000/svg">
<g style="mix-blend-mode:multiply" filter="url(#filter0_f_33_251)">
<ellipse cx="572.864" cy="679.112" rx="66.7211" ry="166.207" transform="rotate(-15 572.864 679.112)" fill="#565656"/>
</g>
<g style="mix-blend-mode:multiply" filter="url(#filter1_f_33_251)">
<ellipse cx="869.536" cy="679.139" rx="66.7211" ry="166.207" transform="rotate(15 869.536 679.139)" fill="#565656"/>
</g>
<ellipse cx="564.767" cy="678.737" rx="66.7211" ry="166.207" transform="rotate(-15 564.767 678.737)" fill="url(#paint0_linear_33_251)"/>
<ellipse cx="565.342" cy="678.583" rx="42.2964" ry="105.443" transform="rotate(-15 565.342 678.583)" fill="url(#paint1_linear_33_251)"/>
<ellipse cx="861.437" cy="678.765" rx="66.7211" ry="166.207" transform="rotate(15 861.437 678.765)" fill="url(#paint2_linear_33_251)"/>
<ellipse cx="862.013" cy="678.919" rx="42.2964" ry="105.443" transform="rotate(15 862.013 678.919)" fill="url(#paint3_linear_33_251)"/>
<g filter="url(#filter2_f_33_251)">
<path fill-rule="evenodd" clip-rule="evenodd" d="M663.504 856.555C667.948 879.823 695.653 894.081 725.385 888.402C755.116 882.723 775.615 859.256 771.17 835.988L663.504 856.555Z" fill="white"/>
</g>
<path fill-rule="evenodd" clip-rule="evenodd" d="M663.504 856.555C667.948 879.823 695.653 894.081 725.385 888.402C755.116 882.723 775.615 859.256 771.17 835.988L663.504 856.555Z" fill="white"/>
<defs>
<filter id="filter0_f_33_251" x="482.371" y="504.63" width="180.985" height="348.965" filterUnits="userSpaceOnUse" color-interpolation-filters="sRGB">
<feFlood flood-opacity="0" result="BackgroundImageFix"/>
<feBlend mode="normal" in="SourceGraphic" in2="BackgroundImageFix" result="shape"/>
<feGaussianBlur stdDeviation="6.49944" result="effect1_foregroundBlur_33_251"/>
</filter>
<filter id="filter1_f_33_251" x="779.043" y="504.657" width="180.985" height="348.964" filterUnits="userSpaceOnUse" color-interpolation-filters="sRGB">
<feFlood flood-opacity="0" result="BackgroundImageFix"/>
<feBlend mode="normal" in="SourceGraphic" in2="BackgroundImageFix" result="shape"/>
<feGaussianBlur stdDeviation="6.49944" result="effect1_foregroundBlur_33_251"/>
</filter>
<filter id="filter2_f_33_251" x="650.505" y="822.989" width="134.27" height="79.6584" filterUnits="userSpaceOnUse" color-interpolation-filters="sRGB">
<feFlood flood-opacity="0" result="BackgroundImageFix"/>
<feBlend mode="normal" in="SourceGraphic" in2="BackgroundImageFix" result="shape"/>
<feGaussianBlur stdDeviation="6.49944" result="effect1_foregroundBlur_33_251"/>
</filter>
<linearGradient id="paint0_linear_33_251" x1="564.767" y1="512.53" x2="564.767" y2="844.944" gradientUnits="userSpaceOnUse">
<stop offset="0.511458" stop-color="#E6E6E6"/>
<stop offset="0.511558" stop-color="white"/>
</linearGradient>
<linearGradient id="paint1_linear_33_251" x1="565.342" y1="573.14" x2="565.342" y2="784.026" gradientUnits="userSpaceOnUse">
<stop offset="0.417708" stop-color="#4FABBF"/>
<stop offset="0.6625" stop-color="#8CD8E9"/>
</linearGradient>
<linearGradient id="paint2_linear_33_251" x1="861.437" y1="512.558" x2="861.437" y2="844.972" gradientUnits="userSpaceOnUse">
<stop offset="0.511458" stop-color="#E6E6E6"/>
<stop offset="0.511558" stop-color="white"/>
</linearGradient>
<linearGradient id="paint3_linear_33_251" x1="862.013" y1="573.476" x2="862.013" y2="784.362" gradientUnits="userSpaceOnUse">
<stop offset="0.417708" stop-color="#4FABBF"/>
<stop offset="0.6625" stop-color="#8CD8E9"/>
</linearGradient>
</defs>
</svg>
