<svg width="620" height="1461" viewBox="0 0 620 1461" fill="none" xmlns="http://www.w3.org/2000/svg">
<path fill-rule="evenodd" clip-rule="evenodd" d="M242.214 351C252.676 281.459 276.697 145.662 290.853 147.651C298.439 148.716 314.153 157.77 330.851 167.391C353.37 180.365 377.679 194.371 386.26 191.209C394.437 188.195 417.412 150.104 438.144 115.733C455.301 87.2894 470.92 61.3936 475.345 60.0334C485.115 57.0294 448.907 257.798 437.986 264.807C432.614 268.255 418.48 264.191 404.546 260.185C390.155 256.047 375.979 251.972 371.891 256.296C365.557 262.996 369.092 321.31 371.762 351H505C532.062 351 554 372.938 554 400V1149C554 1176.06 532.062 1198 505 1198H381.421L323.838 1385.35C319.497 1399.47 299.503 1399.47 295.162 1385.35L237.579 1198H114C86.9381 1198 65 1176.06 65 1149V400C65 372.938 86.938 351 114 351H242.214Z" fill="url(#paint0_linear_34_1397)"/>
<g style="mix-blend-mode:multiply" opacity="0.8" filter="url(#filter0_i_34_1397)">
<path fill-rule="evenodd" clip-rule="evenodd" d="M242.365 350C252.905 280.166 276.764 145.671 290.853 147.651C298.439 148.716 314.153 157.77 330.851 167.391C353.37 180.365 377.679 194.371 386.26 191.209C394.437 188.195 417.412 150.104 438.144 115.733C455.301 87.2894 470.92 61.3936 475.345 60.0334C485.115 57.0294 448.907 257.798 437.987 264.807C432.615 268.255 418.48 264.191 404.546 260.185C390.155 256.047 375.979 251.972 371.891 256.296C365.628 262.922 369.015 320.021 371.673 350H505C532.062 350 554 371.938 554 399V1148C554 1175.06 532.062 1197 505 1197H381.728L323.838 1385.35C319.497 1399.47 299.503 1399.47 295.162 1385.35L237.272 1197H114C86.9381 1197 65 1175.06 65 1148V399C65 371.938 86.938 350 114 350H242.365Z" fill="#FF3232" fill-opacity="0.1"/>
</g>
<g style="mix-blend-mode:screen" opacity="0.7" filter="url(#filter1_f_34_1397)">
<rect x="517" y="380" width="17" height="787" rx="8.5" fill="url(#paint1_linear_34_1397)"/>
</g>
<path d="M323.838 1386.35C319.497 1400.47 299.503 1400.47 295.162 1386.35L237.089 1197.41C234.125 1187.76 241.337 1178 251.428 1178L367.572 1178C377.663 1178 384.875 1187.76 381.911 1197.41L323.838 1386.35Z" fill="url(#paint2_linear_34_1397)"/>
<g style="mix-blend-mode:multiply" filter="url(#filter2_f_34_1397)">
<ellipse cx="213.027" cy="663.614" rx="45.3022" ry="112.851" transform="rotate(-15 213.027 663.614)" fill="#868686"/>
</g>
<g style="mix-blend-mode:multiply" filter="url(#filter3_f_34_1397)">
<ellipse cx="414.46" cy="663.632" rx="45.3022" ry="112.851" transform="rotate(15 414.46 663.632)" fill="#868686"/>
</g>
<g filter="url(#filter4_df_34_1397)">
<path d="M310.402 916.22C398.62 916.22 470.152 844.905 470.152 756.912C470.152 668.919 398.62 597.603 310.402 597.603C222.184 597.603 150.652 668.919 150.652 756.912C150.652 844.905 222.184 916.22 310.402 916.22Z" stroke="#8CE8E9" stroke-width="7.06076" shape-rendering="crispEdges"/>
</g>
<path d="M310.402 917.103C398.62 917.103 470.152 845.788 470.152 757.795C470.152 669.802 398.62 598.486 310.402 598.486C222.184 598.486 150.652 669.802 150.652 757.795C150.652 845.788 222.184 917.103 310.402 917.103Z" stroke="#8CE8E9" stroke-width="7.06076"/>
<g style="mix-blend-mode:screen" opacity="0.8">
<path d="M310.402 917.103C398.62 917.103 470.152 845.788 470.152 757.795C470.152 669.802 398.62 598.486 310.402 598.486C222.184 598.486 150.652 669.802 150.652 757.795C150.652 845.788 222.184 917.103 310.402 917.103Z" stroke="#8CE8E9" stroke-width="7.06076"/>
</g>
<ellipse cx="207.529" cy="663.359" rx="45.3022" ry="112.851" transform="rotate(-15 207.529 663.359)" fill="url(#paint3_linear_34_1397)"/>
<ellipse cx="207.92" cy="663.254" rx="28.7183" ry="71.5936" transform="rotate(-15 207.92 663.254)" fill="url(#paint4_linear_34_1397)"/>
<ellipse cx="408.962" cy="663.378" rx="45.3022" ry="112.851" transform="rotate(15 408.962 663.378)" fill="url(#paint5_linear_34_1397)"/>
<ellipse cx="409.353" cy="663.482" rx="28.7183" ry="71.5936" transform="rotate(15 409.353 663.482)" fill="url(#paint6_linear_34_1397)"/>
<g filter="url(#filter5_f_34_1397)">
<path fill-rule="evenodd" clip-rule="evenodd" d="M274.569 784.093C277.587 799.891 296.398 809.572 316.585 805.716C336.772 801.86 350.69 785.927 347.673 770.129L274.569 784.093Z" fill="white"/>
</g>
<path fill-rule="evenodd" clip-rule="evenodd" d="M274.569 784.093C277.587 799.891 296.398 809.572 316.585 805.716C336.772 801.86 350.69 785.927 347.673 770.129L274.569 784.093Z" fill="white"/>
<defs>
<filter id="filter0_i_34_1397" x="65" y="60" width="489" height="1339.94" filterUnits="userSpaceOnUse" color-interpolation-filters="sRGB">
<feFlood flood-opacity="0" result="BackgroundImageFix"/>
<feBlend mode="normal" in="SourceGraphic" in2="BackgroundImageFix" result="shape"/>
<feColorMatrix in="SourceAlpha" type="matrix" values="0 0 0 0 0 0 0 0 0 0 0 0 0 0 0 0 0 0 127 0" result="hardAlpha"/>
<feOffset dy="4"/>
<feGaussianBlur stdDeviation="40"/>
<feComposite in2="hardAlpha" operator="arithmetic" k2="-1" k3="1"/>
<feColorMatrix type="matrix" values="0 0 0 0 0.783333 0 0 0 0 0 0 0 0 0 0 0 0 0 1 0"/>
<feBlend mode="normal" in2="shape" result="effect1_innerShadow_34_1397"/>
</filter>
<filter id="filter1_f_34_1397" x="502" y="365" width="47" height="817" filterUnits="userSpaceOnUse" color-interpolation-filters="sRGB">
<feFlood flood-opacity="0" result="BackgroundImageFix"/>
<feBlend mode="normal" in="SourceGraphic" in2="BackgroundImageFix" result="shape"/>
<feGaussianBlur stdDeviation="7.5" result="effect1_foregroundBlur_34_1397"/>
</filter>
<filter id="filter2_f_34_1397" x="151.584" y="545.144" width="122.885" height="236.94" filterUnits="userSpaceOnUse" color-interpolation-filters="sRGB">
<feFlood flood-opacity="0" result="BackgroundImageFix"/>
<feBlend mode="normal" in="SourceGraphic" in2="BackgroundImageFix" result="shape"/>
<feGaussianBlur stdDeviation="4.41298" result="effect1_foregroundBlur_34_1397"/>
</filter>
<filter id="filter3_f_34_1397" x="353.017" y="545.162" width="122.885" height="236.94" filterUnits="userSpaceOnUse" color-interpolation-filters="sRGB">
<feFlood flood-opacity="0" result="BackgroundImageFix"/>
<feBlend mode="normal" in="SourceGraphic" in2="BackgroundImageFix" result="shape"/>
<feGaussianBlur stdDeviation="4.41298" result="effect1_foregroundBlur_34_1397"/>
</filter>
<filter id="filter4_df_34_1397" x="138.296" y="585.247" width="344.211" height="343.329" filterUnits="userSpaceOnUse" color-interpolation-filters="sRGB">
<feFlood flood-opacity="0" result="BackgroundImageFix"/>
<feColorMatrix in="SourceAlpha" type="matrix" values="0 0 0 0 0 0 0 0 0 0 0 0 0 0 0 0 0 0 127 0" result="hardAlpha"/>
<feOffset dy="3.53038"/>
<feGaussianBlur stdDeviation="1.76519"/>
<feComposite in2="hardAlpha" operator="out"/>
<feColorMatrix type="matrix" values="0 0 0 0 0 0 0 0 0 0 0 0 0 0 0 0 0 0 0.25 0"/>
<feBlend mode="normal" in2="BackgroundImageFix" result="effect1_dropShadow_34_1397"/>
<feBlend mode="normal" in="SourceGraphic" in2="effect1_dropShadow_34_1397" result="shape"/>
<feGaussianBlur stdDeviation="4.41298" result="effect2_foregroundBlur_34_1397"/>
</filter>
<filter id="filter5_f_34_1397" x="265.743" y="761.302" width="91.1666" height="54.0865" filterUnits="userSpaceOnUse" color-interpolation-filters="sRGB">
<feFlood flood-opacity="0" result="BackgroundImageFix"/>
<feBlend mode="normal" in="SourceGraphic" in2="BackgroundImageFix" result="shape"/>
<feGaussianBlur stdDeviation="4.41298" result="effect1_foregroundBlur_34_1397"/>
</filter>
<linearGradient id="paint0_linear_34_1397" x1="309.5" y1="60" x2="309.5" y2="1395.94" gradientUnits="userSpaceOnUse">
<stop stop-color="#EC6D4F"/>
<stop offset="0.511458" stop-color="#FA8B5B"/>
<stop offset="1" stop-color="#EC6D4F"/>
</linearGradient>
<linearGradient id="paint1_linear_34_1397" x1="525.5" y1="380" x2="525.5" y2="1167" gradientUnits="userSpaceOnUse">
<stop offset="0.105208" stop-color="white"/>
<stop offset="0.183333" stop-color="white" stop-opacity="0.1"/>
<stop offset="0.251042" stop-color="white"/>
<stop offset="0.797917" stop-color="white" stop-opacity="0"/>
<stop offset="0.9125" stop-color="white"/>
</linearGradient>
<linearGradient id="paint2_linear_34_1397" x1="309.5" y1="1433" x2="309.5" y2="1093" gradientUnits="userSpaceOnUse">
<stop offset="0.323958" stop-color="#EC6D4F"/>
<stop offset="0.69365" stop-color="#CB251A"/>
<stop offset="0.69375" stop-color="#C80000" stop-opacity="0"/>
</linearGradient>
<linearGradient id="paint3_linear_34_1397" x1="207.529" y1="550.508" x2="207.529" y2="776.21" gradientUnits="userSpaceOnUse">
<stop offset="0.511458" stop-color="#E6E6E6"/>
<stop offset="0.511558" stop-color="white"/>
</linearGradient>
<linearGradient id="paint4_linear_34_1397" x1="207.92" y1="591.66" x2="207.92" y2="734.848" gradientUnits="userSpaceOnUse">
<stop offset="0.417708" stop-color="#4FABBF"/>
<stop offset="0.6625" stop-color="#8CD8E9"/>
</linearGradient>
<linearGradient id="paint5_linear_34_1397" x1="408.962" y1="550.527" x2="408.962" y2="776.229" gradientUnits="userSpaceOnUse">
<stop offset="0.511458" stop-color="#E6E6E6"/>
<stop offset="0.511558" stop-color="white"/>
</linearGradient>
<linearGradient id="paint6_linear_34_1397" x1="409.353" y1="591.888" x2="409.353" y2="735.076" gradientUnits="userSpaceOnUse">
<stop offset="0.417708" stop-color="#4FABBF"/>
<stop offset="0.6625" stop-color="#8CD8E9"/>
</linearGradient>
</defs>
</svg>
