<svg width="620" height="1461" viewBox="0 0 620 1461" fill="none" xmlns="http://www.w3.org/2000/svg">
<g style="mix-blend-mode:multiply" filter="url(#filter0_f_34_1438)">
<ellipse cx="213.027" cy="663.614" rx="45.3022" ry="112.851" transform="rotate(-15 213.027 663.614)" fill="#565656"/>
</g>
<g style="mix-blend-mode:multiply" filter="url(#filter1_f_34_1438)">
<ellipse cx="414.461" cy="663.632" rx="45.3022" ry="112.851" transform="rotate(15 414.461 663.632)" fill="#565656"/>
</g>
<ellipse cx="207.529" cy="663.359" rx="45.3022" ry="112.851" transform="rotate(-15 207.529 663.359)" fill="url(#paint0_linear_34_1438)"/>
<ellipse cx="207.92" cy="663.254" rx="28.7183" ry="71.5936" transform="rotate(-15 207.92 663.254)" fill="url(#paint1_linear_34_1438)"/>
<ellipse cx="408.962" cy="663.378" rx="45.3022" ry="112.851" transform="rotate(15 408.962 663.378)" fill="url(#paint2_linear_34_1438)"/>
<ellipse cx="409.353" cy="663.482" rx="28.7183" ry="71.5936" transform="rotate(15 409.353 663.482)" fill="url(#paint3_linear_34_1438)"/>
<g filter="url(#filter2_f_34_1438)">
<path fill-rule="evenodd" clip-rule="evenodd" d="M274.569 784.093C277.587 799.891 296.398 809.572 316.585 805.716C336.772 801.86 350.69 785.927 347.673 770.129L274.569 784.093Z" fill="white"/>
</g>
<path fill-rule="evenodd" clip-rule="evenodd" d="M274.569 784.093C277.587 799.891 296.398 809.572 316.585 805.716C336.772 801.86 350.69 785.927 347.673 770.129L274.569 784.093Z" fill="white"/>
<defs>
<filter id="filter0_f_34_1438" x="147.411" y="540.971" width="131.231" height="245.285" filterUnits="userSpaceOnUse" color-interpolation-filters="sRGB">
<feFlood flood-opacity="0" result="BackgroundImageFix"/>
<feBlend mode="normal" in="SourceGraphic" in2="BackgroundImageFix" result="shape"/>
<feGaussianBlur stdDeviation="6.49944" result="effect1_foregroundBlur_34_1438"/>
</filter>
<filter id="filter1_f_34_1438" x="348.845" y="540.989" width="131.231" height="245.285" filterUnits="userSpaceOnUse" color-interpolation-filters="sRGB">
<feFlood flood-opacity="0" result="BackgroundImageFix"/>
<feBlend mode="normal" in="SourceGraphic" in2="BackgroundImageFix" result="shape"/>
<feGaussianBlur stdDeviation="6.49944" result="effect1_foregroundBlur_34_1438"/>
</filter>
<filter id="filter2_f_34_1438" x="265.743" y="761.302" width="91.1666" height="54.0865" filterUnits="userSpaceOnUse" color-interpolation-filters="sRGB">
<feFlood flood-opacity="0" result="BackgroundImageFix"/>
<feBlend mode="normal" in="SourceGraphic" in2="BackgroundImageFix" result="shape"/>
<feGaussianBlur stdDeviation="4.41298" result="effect1_foregroundBlur_34_1438"/>
</filter>
<linearGradient id="paint0_linear_34_1438" x1="207.529" y1="550.508" x2="207.529" y2="776.21" gradientUnits="userSpaceOnUse">
<stop offset="0.511458" stop-color="#E6E6E6"/>
<stop offset="0.511558" stop-color="white"/>
</linearGradient>
<linearGradient id="paint1_linear_34_1438" x1="207.92" y1="591.66" x2="207.92" y2="734.848" gradientUnits="userSpaceOnUse">
<stop offset="0.417708" stop-color="#4FABBF"/>
<stop offset="0.6625" stop-color="#8CD8E9"/>
</linearGradient>
<linearGradient id="paint2_linear_34_1438" x1="408.962" y1="550.527" x2="408.962" y2="776.229" gradientUnits="userSpaceOnUse">
<stop offset="0.511458" stop-color="#E6E6E6"/>
<stop offset="0.511558" stop-color="white"/>
</linearGradient>
<linearGradient id="paint3_linear_34_1438" x1="409.353" y1="591.889" x2="409.353" y2="735.076" gradientUnits="userSpaceOnUse">
<stop offset="0.417708" stop-color="#4FABBF"/>
<stop offset="0.6625" stop-color="#8CD8E9"/>
</linearGradient>
</defs>
</svg>
