<svg width="1432" height="1461" viewBox="0 0 1432 1461" fill="none" xmlns="http://www.w3.org/2000/svg">
<path fill-rule="evenodd" clip-rule="evenodd" d="M781.016 394C766.772 309.259 745.185 201.657 731.425 203.595C722.391 204.867 703.678 215.67 683.793 227.151C656.975 242.633 628.025 259.347 617.807 255.573C608.069 251.977 580.708 206.522 556.018 165.507C535.587 131.565 516.986 100.663 511.717 99.0398C500.081 95.4551 543.202 335.035 556.206 343.399C562.604 347.514 579.437 342.664 596.03 337.884C613.167 332.946 630.049 328.082 634.918 333.243C639.472 338.07 639.742 365.345 638.542 394H101.184C67.9454 394 41 420.945 41 454.184V1123.82C41 1157.05 67.9453 1184 101.184 1184H661.569L699.72 1308.13C704.696 1324.32 727.617 1324.32 732.593 1308.13L770.744 1184H1330.82C1364.05 1184 1391 1157.05 1391 1123.82V454.184C1391 420.945 1364.05 394 1330.82 394H781.016Z" fill="url(#paint0_linear_33_138)"/>
<g style="mix-blend-mode:multiply" opacity="0.8" filter="url(#filter0_i_33_138)">
<path fill-rule="evenodd" clip-rule="evenodd" d="M781.016 394C766.772 309.259 745.185 201.657 731.425 203.595C722.391 204.867 703.678 215.67 683.793 227.151C656.975 242.633 628.025 259.347 617.807 255.573C608.069 251.977 580.708 206.522 556.018 165.507C535.587 131.565 516.986 100.663 511.717 99.0398C500.081 95.4551 543.202 335.035 556.206 343.399C562.604 347.514 579.437 342.664 596.03 337.884C613.167 332.946 630.049 328.082 634.918 333.243C639.472 338.07 639.742 365.345 638.542 394H101.184C67.9454 394 41 420.945 41 454.184V1123.82C41 1157.05 67.9453 1184 101.184 1184H661.569L699.72 1308.13C704.696 1324.32 727.617 1324.32 732.593 1308.13L770.744 1184H1330.82C1364.05 1184 1391 1157.05 1391 1123.82V454.184C1391 420.945 1364.05 394 1330.82 394H781.016Z" fill="#FF3232" fill-opacity="0.1"/>
</g>
<g style="mix-blend-mode:screen" opacity="0.7" filter="url(#filter1_f_33_138)">
<rect x="1334" y="426" width="33" height="723" rx="16.5" fill="url(#paint1_linear_33_138)"/>
</g>
<path d="M732.562 1310.22C727.066 1326.58 703.934 1326.58 698.438 1310.22L658.956 1192.73C655.037 1181.07 663.714 1169 676.019 1169L754.981 1169C767.286 1169 775.963 1181.07 772.044 1192.73L732.562 1310.22Z" fill="url(#paint2_linear_33_138)"/>
<g style="mix-blend-mode:screen" opacity="0.7" filter="url(#filter2_f_33_138)">
<rect x="72" y="422" width="9.99997" height="723" rx="4.99998" transform="rotate(-90 72 422)" fill="url(#paint3_linear_33_138)"/>
</g>
<g style="mix-blend-mode:multiply" filter="url(#filter3_f_33_138)">
<ellipse cx="572.864" cy="679.112" rx="66.7211" ry="166.207" transform="rotate(-15 572.864 679.112)" fill="#868686"/>
</g>
<g style="mix-blend-mode:multiply" filter="url(#filter4_f_33_138)">
<ellipse cx="869.536" cy="679.139" rx="66.7211" ry="166.207" transform="rotate(15 869.536 679.139)" fill="#868686"/>
</g>
<g filter="url(#filter5_df_33_138)">
<path d="M716.277 1051.15C846.205 1051.15 951.557 946.119 951.557 816.523C951.557 686.927 846.205 581.893 716.277 581.893C586.35 581.893 480.998 686.927 480.998 816.523C480.998 946.119 586.35 1051.15 716.277 1051.15Z" stroke="#8CE8E9" stroke-width="10.3991" shape-rendering="crispEdges"/>
</g>
<path d="M716.277 1052.45C846.205 1052.45 951.557 947.419 951.557 817.823C951.557 688.226 846.205 583.193 716.277 583.193C586.35 583.193 480.998 688.226 480.998 817.823C480.998 947.419 586.35 1052.45 716.277 1052.45Z" stroke="#8CE8E9" stroke-width="10.3991"/>
<g style="mix-blend-mode:screen" opacity="0.8">
<path d="M716.277 1052.45C846.205 1052.45 951.557 947.419 951.557 817.823C951.557 688.226 846.205 583.193 716.277 583.193C586.35 583.193 480.998 688.226 480.998 817.823C480.998 947.419 586.35 1052.45 716.277 1052.45Z" stroke="#8CE8E9" stroke-width="10.3991"/>
</g>
<ellipse cx="564.767" cy="678.737" rx="66.7211" ry="166.207" transform="rotate(-15 564.767 678.737)" fill="url(#paint4_linear_33_138)"/>
<ellipse cx="565.342" cy="678.583" rx="42.2964" ry="105.443" transform="rotate(-15 565.342 678.583)" fill="url(#paint5_linear_33_138)"/>
<ellipse cx="861.437" cy="678.765" rx="66.7211" ry="166.207" transform="rotate(15 861.437 678.765)" fill="url(#paint6_linear_33_138)"/>
<ellipse cx="862.013" cy="678.919" rx="42.2964" ry="105.443" transform="rotate(15 862.013 678.919)" fill="url(#paint7_linear_33_138)"/>
<g filter="url(#filter6_f_33_138)">
<path fill-rule="evenodd" clip-rule="evenodd" d="M663.504 856.555C667.948 879.823 695.653 894.081 725.385 888.402C755.116 882.723 775.615 859.256 771.17 835.988L663.504 856.555Z" fill="white"/>
</g>
<path fill-rule="evenodd" clip-rule="evenodd" d="M663.504 856.555C667.948 879.823 695.653 894.081 725.385 888.402C755.116 882.723 775.615 859.256 771.17 835.988L663.504 856.555Z" fill="white"/>
<defs>
<filter id="filter0_i_33_138" x="41" y="99" width="1350" height="1225.27" filterUnits="userSpaceOnUse" color-interpolation-filters="sRGB">
<feFlood flood-opacity="0" result="BackgroundImageFix"/>
<feBlend mode="normal" in="SourceGraphic" in2="BackgroundImageFix" result="shape"/>
<feColorMatrix in="SourceAlpha" type="matrix" values="0 0 0 0 0 0 0 0 0 0 0 0 0 0 0 0 0 0 127 0" result="hardAlpha"/>
<feOffset dy="4"/>
<feGaussianBlur stdDeviation="90"/>
<feComposite in2="hardAlpha" operator="arithmetic" k2="-1" k3="1"/>
<feColorMatrix type="matrix" values="0 0 0 0 0.783333 0 0 0 0 0 0 0 0 0 0 0 0 0 1 0"/>
<feBlend mode="normal" in2="shape" result="effect1_innerShadow_33_138"/>
</filter>
<filter id="filter1_f_33_138" x="1319" y="411" width="63" height="753" filterUnits="userSpaceOnUse" color-interpolation-filters="sRGB">
<feFlood flood-opacity="0" result="BackgroundImageFix"/>
<feBlend mode="normal" in="SourceGraphic" in2="BackgroundImageFix" result="shape"/>
<feGaussianBlur stdDeviation="7.5" result="effect1_foregroundBlur_33_138"/>
</filter>
<filter id="filter2_f_33_138" x="57" y="397" width="753" height="40" filterUnits="userSpaceOnUse" color-interpolation-filters="sRGB">
<feFlood flood-opacity="0" result="BackgroundImageFix"/>
<feBlend mode="normal" in="SourceGraphic" in2="BackgroundImageFix" result="shape"/>
<feGaussianBlur stdDeviation="7.5" result="effect1_foregroundBlur_33_138"/>
</filter>
<filter id="filter3_f_33_138" x="482.371" y="504.63" width="180.985" height="348.965" filterUnits="userSpaceOnUse" color-interpolation-filters="sRGB">
<feFlood flood-opacity="0" result="BackgroundImageFix"/>
<feBlend mode="normal" in="SourceGraphic" in2="BackgroundImageFix" result="shape"/>
<feGaussianBlur stdDeviation="6.49944" result="effect1_foregroundBlur_33_138"/>
</filter>
<filter id="filter4_f_33_138" x="779.043" y="504.657" width="180.985" height="348.964" filterUnits="userSpaceOnUse" color-interpolation-filters="sRGB">
<feFlood flood-opacity="0" result="BackgroundImageFix"/>
<feBlend mode="normal" in="SourceGraphic" in2="BackgroundImageFix" result="shape"/>
<feGaussianBlur stdDeviation="6.49944" result="effect1_foregroundBlur_33_138"/>
</filter>
<filter id="filter5_df_33_138" x="462.799" y="563.695" width="506.957" height="505.656" filterUnits="userSpaceOnUse" color-interpolation-filters="sRGB">
<feFlood flood-opacity="0" result="BackgroundImageFix"/>
<feColorMatrix in="SourceAlpha" type="matrix" values="0 0 0 0 0 0 0 0 0 0 0 0 0 0 0 0 0 0 127 0" result="hardAlpha"/>
<feOffset dy="5.19955"/>
<feGaussianBlur stdDeviation="2.59977"/>
<feComposite in2="hardAlpha" operator="out"/>
<feColorMatrix type="matrix" values="0 0 0 0 0 0 0 0 0 0 0 0 0 0 0 0 0 0 0.25 0"/>
<feBlend mode="normal" in2="BackgroundImageFix" result="effect1_dropShadow_33_138"/>
<feBlend mode="normal" in="SourceGraphic" in2="effect1_dropShadow_33_138" result="shape"/>
<feGaussianBlur stdDeviation="6.49944" result="effect2_foregroundBlur_33_138"/>
</filter>
<filter id="filter6_f_33_138" x="650.505" y="822.989" width="134.27" height="79.6584" filterUnits="userSpaceOnUse" color-interpolation-filters="sRGB">
<feFlood flood-opacity="0" result="BackgroundImageFix"/>
<feBlend mode="normal" in="SourceGraphic" in2="BackgroundImageFix" result="shape"/>
<feGaussianBlur stdDeviation="6.49944" result="effect1_foregroundBlur_33_138"/>
</filter>
<linearGradient id="paint0_linear_33_138" x1="223.5" y1="192.5" x2="1078.5" y2="1276" gradientUnits="userSpaceOnUse">
<stop stop-color="#EC6D4F"/>
<stop offset="0.511458" stop-color="#FA8B5B"/>
<stop offset="1" stop-color="#EC6D4F"/>
</linearGradient>
<linearGradient id="paint1_linear_33_138" x1="1350.5" y1="426" x2="1350.5" y2="1149" gradientUnits="userSpaceOnUse">
<stop offset="0.105208" stop-color="white"/>
<stop offset="0.183333" stop-color="white" stop-opacity="0.1"/>
<stop offset="0.251042" stop-color="white"/>
<stop offset="0.797917" stop-color="white" stop-opacity="0"/>
<stop offset="0.9125" stop-color="white"/>
</linearGradient>
<linearGradient id="paint2_linear_33_138" x1="715.5" y1="1361" x2="715.5" y2="1105" gradientUnits="userSpaceOnUse">
<stop offset="0.323958" stop-color="#EC6D4F"/>
<stop offset="0.69365" stop-color="#CB251A"/>
<stop offset="0.69375" stop-color="#C80000" stop-opacity="0"/>
</linearGradient>
<linearGradient id="paint3_linear_33_138" x1="77" y1="422" x2="77" y2="1145" gradientUnits="userSpaceOnUse">
<stop offset="0.105208" stop-color="white"/>
<stop offset="0.183333" stop-color="white" stop-opacity="0.1"/>
<stop offset="0.251042" stop-color="white"/>
<stop offset="0.797917" stop-color="white" stop-opacity="0"/>
<stop offset="0.9125" stop-color="white"/>
</linearGradient>
<linearGradient id="paint4_linear_33_138" x1="564.767" y1="512.53" x2="564.767" y2="844.944" gradientUnits="userSpaceOnUse">
<stop offset="0.511458" stop-color="#E6E6E6"/>
<stop offset="0.511558" stop-color="white"/>
</linearGradient>
<linearGradient id="paint5_linear_33_138" x1="565.342" y1="573.14" x2="565.342" y2="784.026" gradientUnits="userSpaceOnUse">
<stop offset="0.417708" stop-color="#4FABBF"/>
<stop offset="0.6625" stop-color="#8CD8E9"/>
</linearGradient>
<linearGradient id="paint6_linear_33_138" x1="861.437" y1="512.558" x2="861.437" y2="844.972" gradientUnits="userSpaceOnUse">
<stop offset="0.511458" stop-color="#E6E6E6"/>
<stop offset="0.511558" stop-color="white"/>
</linearGradient>
<linearGradient id="paint7_linear_33_138" x1="862.013" y1="573.476" x2="862.013" y2="784.362" gradientUnits="userSpaceOnUse">
<stop offset="0.417708" stop-color="#4FABBF"/>
<stop offset="0.6625" stop-color="#8CD8E9"/>
</linearGradient>
</defs>
</svg>
