<svg width="620" height="1461" viewBox="0 0 620 1461" fill="none" xmlns="http://www.w3.org/2000/svg">
<g clip-path="url(#clip0_34_1456)">
<g filter="url(#filter0_f_34_1456)">
<ellipse cx="305" cy="1386" rx="229" ry="47" fill="black" fill-opacity="0.8"/>
<path d="M533.5 1386C533.5 1389.07 531.988 1392.12 528.993 1395.12C525.998 1398.12 521.554 1401.05 515.786 1403.84C504.252 1409.44 487.53 1414.5 466.827 1418.74C425.428 1427.24 368.213 1432.5 305 1432.5C241.787 1432.5 184.572 1427.24 143.173 1418.74C122.47 1414.5 105.748 1409.44 94.2142 1403.84C88.4463 1401.05 84.0021 1398.12 81.0065 1395.12C78.0123 1392.12 76.5 1389.07 76.5 1386C76.5 1382.93 78.0123 1379.88 81.0065 1376.88C84.0021 1373.88 88.4463 1370.95 94.2142 1368.16C105.748 1362.56 122.47 1357.5 143.173 1353.26C184.572 1344.76 241.787 1339.5 305 1339.5C368.213 1339.5 425.428 1344.76 466.827 1353.26C487.53 1357.5 504.252 1362.56 515.786 1368.16C521.554 1370.95 525.998 1373.88 528.993 1376.88C531.988 1379.88 533.5 1382.93 533.5 1386Z" stroke="black"/>
</g>
<path fill-rule="evenodd" clip-rule="evenodd" d="M242.214 351C252.676 281.459 276.697 145.662 290.853 147.651C298.439 148.716 314.153 157.77 330.851 167.391C353.37 180.365 377.679 194.371 386.26 191.209C394.437 188.195 417.412 150.104 438.144 115.733C455.301 87.2894 470.92 61.3936 475.345 60.0334C485.115 57.0294 448.907 257.798 437.986 264.807C432.614 268.255 418.48 264.191 404.546 260.185C390.155 256.047 375.979 251.972 371.891 256.296C365.557 262.996 369.092 321.31 371.762 351H505C532.062 351 554 372.938 554 400V1149C554 1176.06 532.062 1198 505 1198H381.421L323.838 1385.35C319.497 1399.47 299.503 1399.47 295.162 1385.35L237.579 1198H114C86.9381 1198 65 1176.06 65 1149V400C65 372.938 86.938 351 114 351H242.214Z" fill="url(#paint0_linear_34_1456)"/>
<g style="mix-blend-mode:multiply" opacity="0.8" filter="url(#filter1_i_34_1456)">
<path fill-rule="evenodd" clip-rule="evenodd" d="M242.365 350C252.905 280.166 276.764 145.671 290.853 147.651C298.439 148.716 314.153 157.77 330.851 167.391C353.37 180.365 377.679 194.371 386.26 191.209C394.437 188.195 417.412 150.104 438.144 115.733C455.301 87.2894 470.92 61.3936 475.345 60.0334C485.115 57.0294 448.907 257.798 437.987 264.807C432.615 268.255 418.48 264.191 404.546 260.185C390.155 256.047 375.979 251.972 371.891 256.296C365.628 262.922 369.015 320.021 371.673 350H505C532.062 350 554 371.938 554 399V1148C554 1175.06 532.062 1197 505 1197H381.728L323.838 1385.35C319.497 1399.47 299.503 1399.47 295.162 1385.35L237.272 1197H114C86.9381 1197 65 1175.06 65 1148V399C65 371.938 86.938 350 114 350H242.365Z" fill="#FF3232" fill-opacity="0.1"/>
</g>
<g style="mix-blend-mode:screen" opacity="0.7" filter="url(#filter2_f_34_1456)">
<rect x="517" y="380" width="17" height="787" rx="8.5" fill="url(#paint1_linear_34_1456)"/>
</g>
<path d="M323.838 1386.35C319.497 1400.47 299.503 1400.47 295.162 1386.35L237.089 1197.41C234.125 1187.76 241.337 1178 251.428 1178L367.572 1178C377.663 1178 384.875 1187.76 381.911 1197.41L323.838 1386.35Z" fill="url(#paint2_linear_34_1456)"/>
</g>
<defs>
<filter id="filter0_f_34_1456" x="46" y="1309" width="518" height="154" filterUnits="userSpaceOnUse" color-interpolation-filters="sRGB">
<feFlood flood-opacity="0" result="BackgroundImageFix"/>
<feBlend mode="normal" in="SourceGraphic" in2="BackgroundImageFix" result="shape"/>
<feGaussianBlur stdDeviation="15" result="effect1_foregroundBlur_34_1456"/>
</filter>
<filter id="filter1_i_34_1456" x="65" y="60" width="489" height="1339.94" filterUnits="userSpaceOnUse" color-interpolation-filters="sRGB">
<feFlood flood-opacity="0" result="BackgroundImageFix"/>
<feBlend mode="normal" in="SourceGraphic" in2="BackgroundImageFix" result="shape"/>
<feColorMatrix in="SourceAlpha" type="matrix" values="0 0 0 0 0 0 0 0 0 0 0 0 0 0 0 0 0 0 127 0" result="hardAlpha"/>
<feOffset dy="4"/>
<feGaussianBlur stdDeviation="40"/>
<feComposite in2="hardAlpha" operator="arithmetic" k2="-1" k3="1"/>
<feColorMatrix type="matrix" values="0 0 0 0 0.783333 0 0 0 0 0 0 0 0 0 0 0 0 0 1 0"/>
<feBlend mode="normal" in2="shape" result="effect1_innerShadow_34_1456"/>
</filter>
<filter id="filter2_f_34_1456" x="502" y="365" width="47" height="817" filterUnits="userSpaceOnUse" color-interpolation-filters="sRGB">
<feFlood flood-opacity="0" result="BackgroundImageFix"/>
<feBlend mode="normal" in="SourceGraphic" in2="BackgroundImageFix" result="shape"/>
<feGaussianBlur stdDeviation="7.5" result="effect1_foregroundBlur_34_1456"/>
</filter>
<linearGradient id="paint0_linear_34_1456" x1="309.5" y1="60" x2="309.5" y2="1395.94" gradientUnits="userSpaceOnUse">
<stop stop-color="#EC6D4F"/>
<stop offset="0.511458" stop-color="#FA8B5B"/>
<stop offset="1" stop-color="#EC6D4F"/>
</linearGradient>
<linearGradient id="paint1_linear_34_1456" x1="525.5" y1="380" x2="525.5" y2="1167" gradientUnits="userSpaceOnUse">
<stop offset="0.105208" stop-color="white"/>
<stop offset="0.183333" stop-color="white" stop-opacity="0.1"/>
<stop offset="0.251042" stop-color="white"/>
<stop offset="0.797917" stop-color="white" stop-opacity="0"/>
<stop offset="0.9125" stop-color="white"/>
</linearGradient>
<linearGradient id="paint2_linear_34_1456" x1="309.5" y1="1433" x2="309.5" y2="1093" gradientUnits="userSpaceOnUse">
<stop offset="0.323958" stop-color="#EC6D4F"/>
<stop offset="0.69365" stop-color="#CB251A"/>
<stop offset="0.69375" stop-color="#C80000" stop-opacity="0"/>
</linearGradient>
<clipPath id="clip0_34_1456">
<rect width="620" height="1461" fill="white"/>
</clipPath>
</defs>
</svg>
