<svg width="620" height="1461" viewBox="0 0 620 1461" fill="none" xmlns="http://www.w3.org/2000/svg">
<g filter="url(#filter0_df_34_1393)">
<path d="M310.402 916.22C398.62 916.22 470.152 844.905 470.152 756.912C470.152 668.919 398.62 597.603 310.402 597.603C222.184 597.603 150.652 668.919 150.652 756.912C150.652 844.905 222.184 916.22 310.402 916.22Z" stroke="#8CE8E9" stroke-width="7.06076" shape-rendering="crispEdges"/>
</g>
<path d="M310.402 917.103C398.62 917.103 470.152 845.788 470.152 757.795C470.152 669.802 398.62 598.486 310.402 598.486C222.184 598.486 150.652 669.802 150.652 757.795C150.652 845.788 222.184 917.103 310.402 917.103Z" stroke="#8CE8E9" stroke-width="7.06076"/>
<g style="mix-blend-mode:screen" opacity="0.8">
<path d="M310.402 917.103C398.62 917.103 470.152 845.788 470.152 757.795C470.152 669.802 398.62 598.486 310.402 598.486C222.184 598.486 150.652 669.802 150.652 757.795C150.652 845.788 222.184 917.103 310.402 917.103Z" stroke="#8CE8E9" stroke-width="7.06076"/>
</g>
<defs>
<filter id="filter0_df_34_1393" x="138.296" y="585.247" width="344.211" height="343.329" filterUnits="userSpaceOnUse" color-interpolation-filters="sRGB">
<feFlood flood-opacity="0" result="BackgroundImageFix"/>
<feColorMatrix in="SourceAlpha" type="matrix" values="0 0 0 0 0 0 0 0 0 0 0 0 0 0 0 0 0 0 127 0" result="hardAlpha"/>
<feOffset dy="3.53038"/>
<feGaussianBlur stdDeviation="1.76519"/>
<feComposite in2="hardAlpha" operator="out"/>
<feColorMatrix type="matrix" values="0 0 0 0 0 0 0 0 0 0 0 0 0 0 0 0 0 0 0.25 0"/>
<feBlend mode="normal" in2="BackgroundImageFix" result="effect1_dropShadow_34_1393"/>
<feBlend mode="normal" in="SourceGraphic" in2="effect1_dropShadow_34_1393" result="shape"/>
<feGaussianBlur stdDeviation="4.41298" result="effect2_foregroundBlur_34_1393"/>
</filter>
</defs>
</svg>
