<svg width="1038" height="808" viewBox="0 0 1038 808" fill="none" xmlns="http://www.w3.org/2000/svg">
<g clip-path="url(#clip0_48_1590)">
<mask id="mask0_48_1590" style="mask-type:alpha" maskUnits="userSpaceOnUse" x="403" y="86" width="636" height="636">
<rect x="403" y="86" width="635.132" height="635.132" fill="#C8C8C8"/>
</mask>
<g mask="url(#mask0_48_1590)">
<path d="M921.691 641.741L754.969 475.019C741.737 485.604 726.52 493.984 709.319 500.159C692.117 506.334 673.813 509.422 654.406 509.422C606.33 509.422 565.642 492.772 532.342 459.471C499.042 426.171 482.391 385.483 482.391 337.407C482.391 289.331 499.042 248.643 532.342 215.342C565.642 182.042 606.33 165.392 654.406 165.392C702.482 165.392 743.17 182.042 776.471 215.342C809.771 248.643 826.421 289.331 826.421 337.407C826.421 356.814 823.334 375.118 817.159 392.319C810.984 409.521 802.604 424.737 792.018 437.969L958.74 604.692L921.691 641.741ZM654.406 456.494C687.486 456.494 715.604 444.916 738.76 421.76C761.916 398.604 773.494 370.487 773.494 337.407C773.494 304.327 761.916 276.209 738.76 253.053C715.604 229.897 687.486 218.32 654.406 218.32C621.327 218.32 593.209 229.897 570.053 253.053C546.897 276.209 535.319 304.327 535.319 337.407C535.319 370.487 546.897 398.604 570.053 421.76C593.209 444.916 621.327 456.494 654.406 456.494Z" fill="#C8C8C8"/>
</g>
<circle cx="937.5" cy="620.5" r="26.5" fill="#C8C8C8"/>
</g>
<defs>
<clipPath id="clip0_48_1590">
<rect width="1038" height="808" fill="white"/>
</clipPath>
</defs>
</svg>
